<svg xmlns="http://www.w3.org/2000/svg" width="1024" height="1024" viewBox="0 0 1024 1024"><path fill="#030303" d="M777 553.4c0 79.1 0 144-.2 144-.4.2-7.9-1.1-27.6-5a221 221 0 0 0-25.2-4.2 2499 2499 0 0 0-65.5-12.2c-2.7-.6-5.6-.8-6.2-.6q-1.2.5-1.3-.3c-.1-.8-2-1.1-4.3-1.4s-14.7-2.3-27.6-4.6-25-4.1-26.8-4.1-3.3-.4-3.3-.9-4.8-1.6-10.8-2.6l-21.2-3.7a209 209 0 0 0-27-4.4c-3.6-.3-6.7-1-6.8-1.5q-.5-.8-1.8-.9c-1.2 0-1.4-20.8-1.4-151 0-151 .1-155 3.2-155 .4 0 6.5-3.8 13.5-8.4a605 605 0 0 1 91.3-47.4 719 719 0 0 1 81-26.7 647 647 0 0 1 65.1-12.5h2.9zM659.4 394.5l.2 84.5H747V286h-3.2c-3.4 0-16.7 2.6-20.3 4-1.1.4-5.6 1.5-10 2.5-11.1 2.4-29 7.6-29.3 8.6q-.5.8-1.7.9c-2 0-20.7 6.1-22.2 7.2-.8.7-1 22.1-1 85.3M741.5 661c2.2.4 4.3.6 4.7.4s.8-36.4.8-80.4v-80l-10.8-.1-43.8-.3-33.1-.1.1 73 .2 72.9 10.9 1.7a205 205 0 0 0 13.5 2.2c.8.3 6.9 1.5 13.5 2.7l16.5 3a918 918 0 0 0 27.5 5M550 363.2V479h88v-80.5c0-44.3-.3-80.5-.6-80.5-.4 0-6 2.7-12.8 5.9-6.6 3.2-13.2 6.2-14.6 6.6s-5.6 2.4-9.5 4.4-7.7 3.8-8.5 4a382 382 0 0 0-32.2 18.5ZM624 640a69 69 0 0 0 11 1.7l2.5-.2.5-140.5-11.7-.1-44.1-.3-32.3-.1.3 62.8c.1 34.6.5 63 .9 63.2a2470 2470 0 0 0 64.4 11.5c0 .1 3.8 1 8.5 2"/><path fill="#c4c5c2" d="m569.2 1012.8-.3 11.2H546v-23h-22v23h-23v-23h-23v23h-23v-23h-9.4c-5.2 0-10.2.3-11 .6-1.3.5-1.6 2.5-1.6 11.5v10.9h-23v-23h-23v23h-23v-23h23v-22h-11c-12 0-12.4.2-12 7.3.1 1.8.2 5.8.1 9l-.1 5.6-11.3.3-11.2.3v22l11.2.3 8.7.2H319v-23h22v-22h-22v22l-11.2.2-11.3.3-.6 22.5H273v-23h-22v23h-23v-23h22v-22h-22v22l-11.2.2-11.3.3-.3 11.2-.3 11.3H182v-23h23v-22h-23v22l-11.2.2-11.3.3-.3 11.2-.3 11.3h-42.3l8.7-.2 11.2-.3-.3-6.3c-.2-3.4 0-8.5.3-11.2l.7-5h21.7l.3-10.6c.2-5.8.1-10.8-.1-11s-5.3-.4-11.3-.4H137v22h-10c-5.4 0-10.6.3-11.4.6-1.3.5-1.6 2.5-1.6 11.5v10.9H91v-23h-9.7a46 46 0 0 0-11.1.9c-1 .6-1.4 3.9-1.5 11.2l-.2 10.4 11.3.3 8.6.2H46v-23H23v23H0v-23h23v-22l11.3-.2 11.2-.3.3-11.2.3-11.3h22.4l-.2 10.8-.3 11.5c0 .4-5 .7-11 .7H46v22h22v-21.9l10.8-.3c5.9-.2 11-.2 11.5 0s.7 5.2.7 11.3v10.9h23v-22H91v-23l-11.2-.2-11.3-.3-.6-22.5H46v23H23v23H0v-23h23v-23H0v-22h23v-20H0v-22h23v-22h21.7l.7 3.8c.3 2 .6 7 .6 11v7.2h11c8.1 0 11-.3 11-1.2v-11l-.1-9.8H91v-43H68v22H46v-22h22v-21H46v10.1c0 5.6 0 8.3-1.4 9.6s-3.9 1.3-9 1.3H23v22H0v-22h23v-21H0v-20.8l10.3-.2c5.6-.2 10.8-.2 11.5-.1.9 0 1.2 3 1.2 10.6V783h23v-21H23v-22H0v-22h23v-21H0v-22h23v-21H0v-20l11.3-.2 11.2-.3.3-10.7.3-10.8H46v-21H23v21H0v-21h23v-22H0v-23h23v-22H0v-23l22.5-.5.6-22.5H46v-23H23v23H0v-23h23v-22H0v-22l22.5-.5.6-20.5H0v-20h23l.2 9.8.3 9.7h22l.6-19.5h21.8l.3 9.8.3 9.7 22.5.6V411h23v-21H91v-20H68v-20H46v20H23v-20H0v-20h23v-21H0v-18h23v-18H0v-21.7l6.8-.7c3.7-.3 8.8-.6 11.5-.6H23v-22H0v-23h23v-23h23v-45H23v-23H0V91h23V68H0V46h23V23H0V0h23v10.8c0 6 .3 11.2.7 11.6.4.3 5.5.5 11.3.4l10.5-.3.3-11.3L46 0h22v10c0 5.4.3 10.6.6 11.4.5 1.3 2.5 1.6 11.5 1.6H91V0h23v23H91v10.9c0 9 .3 11 1.6 11.5.9.3 6 .6 11.5.6h9.9V23l22.5-.5.3-11.2L137 0h21.8l.3 11.3.3 11.2 22.5.6v21.6l7.7.6c4.2.4 9.3.7 11.5.7h3.8v22h22v24.2l-11-.7-11-.8V68h-23v23h23v5.4q0 5.6 1 5.1c.6-.4 1 1.7 1 5.5s-.4 5.9-1 5.5q-.9-.4-1 .4-.1 1-11.5 1.1H182V91h-22l-.2-6.2-.4-11.3v-5l-22.4-.6V46h-23v22h23v23h22l.2 11.3.3 11.2 22.5.6V159h10c5.4 0 10.5.3 11.4.6 1.3.5 1.6 2.5 1.6 11.5V182h23v-10.9c0-9-.3-11-1.6-11.5-.9-.3-6-.6-11.5-.6H205v-22h21.8l.7 11 .8 11 6.6.2c7.4.2 13 .5 14.8.7 1 0 1.3 3 1.3 11.1v11h22l.5 22.5 11.2.3 11.2.3.3 11.2.3 11.2h22l.6-22.5H296v-23h-23v-23h-22v-10.3q0-10.2-1.2-11.5c-1.2-1.3-4.8-1.2-11.5-1.2H228v-22h23l.2 11.3.3 11.2 21.5.6V159h23v-22l11.3-.2 11.2-.3.6-22.5h21.8l.6 22.5 11.3.3 11.2.3V159h-23v-22h-22v22h-23v23h23l.5 22.5 21.5.6V228h23v-23h-23v-23h-22v-22.9l11 .2 11 .1.2 11 .3 11.1 11.2.3 11.2.3.3 11.2.3 11.2 11.2.3 11.2.3.3 11.2.3 11.2 11.3.3 11.2.3V250h21.8l.7-11 .8-11H455v-23h-22v23h-23v-23l11.3-.2 11.2-.3v-22l-11.2-.3-11.3-.3V171c0-8 .3-11 1.3-11.1l2.2-.4c.6-.2 5.2-.3 10.3-.4l9.2-.1v-22h-23v22h-23v-22h-23v-23h-23V91h-22v23h-23v23h-23v-23h-21.9l-.6-11.5-.6-11.5H273V46.3l-3.7-.7c-2.1-.3-7-.6-11-.6h-7l-.7-6.7c-.3-3.8-.6-8.7-.6-11V23h-22v9.4c0 5.2-.3 10.2-.6 11-.5 1.3.2 1.6 4.2 1.6 2.7 0 8 .3 11.6.7l6.8.6V68h-22l-.2-11.2-.3-11.3-11.2-.3L205 45V23h-23V0h23v10.8c0 6 .3 11.2.7 11.6.4.3 5.5.5 11.3.4l10.5-.3.3-11.3L228 0h23v23h22V0h23v10.8c0 6 .3 11.2.7 11.6.4.3 5.5.5 11.3.4l10.5-.3.6-22.5h21.8l.6 22.5 22.5.6v21.7l4.8.6c2.6.4 7.5.6 11 .4 3.3-.1 6.3 0 6.6.3.5.5.8 13.3.7 33.1L387 91h23V68.5c0-12.4.3-22.5.8-22.6 7.8-.7 16.4-.8 19-.4l3.2.6V91h-23v23h-23v10.8c0 6 .3 11.2.7 11.6.4.3 5.5.5 11.3.4l10.5-.3.6-22.4 22.4-.6.6-22.5H455V46h-22V23h-23v23h-23V23l22.5-.5.6-22.5H433v23h22V0h23v23h-23v22h23V23l22.5-.5.6-22.5H524v23h22v22h-22l-.2-10.7-.3-10.8-22.5-.6V45l3.8.1h8.2c2.5 0 5.8.2 7.5.7l2.9.8.4 22.2.4 22.2H546V68h23V57.1c0-7.8.4-11 1.3-11.3.6-.3 5.8-.3 11.5 0l10.2.4V68h22V46h-22V23h-23V0h23v23h22V0h23l.2 11.3.3 11.2 22.5.6V46h-23v22h23V46l11.2-.2 11.3-.3.3-11.2.3-11.3H660V0h23v10.8c0 6 .3 11.2.7 11.5s5.3.7 11 .7H705v-3.7c0-2.1.3-7.3.7-11.5l.5-7.8h21.9l-.3 11.3-.3 11.2-10.7.3-10.8.3V46h-23v22h-23v23h23V68l11.2-.2 11.2-.3.2-5.5.3-10.7.1-5.2 9.3-.3h2.6c5.2-.3 7.8-.4 9 .8s1.1 3.5 1.1 8.1V68h-22v23h-23v23h-23v23h-23v21.9l6.3.1H660v-22l11.3-.2 11.2-.3.3-11.2.3-11.2 11.2-.3 11.2-.3.3-11.2.3-11.3h21.8l.3 11.3.3 11.2 11.2.3 11.2.3.3 11.2.3 11.2 11.2.3 11.3.3V159h23v-22h-23v-23h-23V91h-23V68.2l12.5-.4H752c-.6.2-1 5-1 11.8v11.3l22.5.6.3 11.3.3 11.3 11.2-.3 11.2-.3.3-11.3.3-11.2H819l.3 11.2.3 11.3 22.5.6V137h23v-23h-23V91h23v23h22v22h-5.8c-3.1 0-8 .3-11 .6l-5.2.7V159l5.7.1h11l5.3-.3V182h-22v-23h-23v23h23l.2 11.3.3 11.2 11.2.3 11.3.3V228H910l.3-11c.2-6.2.1-11.4-.1-11.6s-5.2-.4-11.1-.4h-10.7l-.6-10.1c-.3-5.6-.3-10.8 0-11.5.4-1 3.2-1.4 11.4-1.4H910v-9.7c.1-5.4.3-10.6.5-11.6.3-1.5-.8-1.7-11-1.7H888v-22h22v10.4c0 6.6.4 10.7 1.1 11.2.6.3 5.8.6 11.5.6H933V182h23l.2 11.3.3 11.2h22v-22l-11.3-.3-11.2-.3v-22.6h11.5c11 .2 11.6.3 11.4 2.2v11.3l.1 9.2h22v-23h-22v-22h-23v22h-23v-12.8c0-4.9 0-7.4-1.2-8.8-1.4-1.4-4.3-1.4-10.3-1.4H910v-22h-22V91h22v23h23V91l22.5.5.3 11.3.3 11.2H933v23h23v-23l22.5-.5.2-9.5.3-11.2c0-1.6 1.2-1.8 10.9-1.8h10.8l.7 3.8c.3 2 .6 7.2.6 11.5v7.7h22v23h-22l-.1 8.5c0 4.7-.2 9-.3 9.8-.2.6 0 1.9.5 2.7.6 1.2 2.6 1.4 11.3 1.2l10.6-.3v23l-11.2.3-11.3.3-.3 10a78 78 0 0 0 .2 11.2c.4 1 3.4 1.3 11.6 1.3h11v23h-22l-.1 9.5c0 5.2-.2 10-.3 10.8-.1 1.4-7 2.5-16.4 2.6l-6.2.1v22h-23v18h21.9l.7-9 .7-9h21.7v-23h23v23h-22v18h22v18h-23v-18h-22v18h21.7l.7 4.6c.3 2.6.6 7.3.6 10.5v5.9h22v20l-22.5.5-.3 8.4c-.2 4.6 0 9 .2 9.7.4 1 3.2 1.4 11.6 1.4h11v20h-22l-.1 5.5-.2 8 .2 5 .1 2.5h22v22h-11c-10.9 0-11 0-11.6 2.5-.5 1.9 0 16.5.6 19.2 0 .2 5 .3 11 .3h11v23h-21.8l-.7 4.6a79 79 0 0 0-.5 10.2v7c0 .9-2.9 1.2-10.9 1.2h-2c-4.8 0-7.3 0-8.7-1.2-1.4-1.4-1.4-4.3-1.4-10.3V478h-22v23h23v23h-23v22h-23v23h23v-23l11.3-.2 11.2-.3.3-10.6c.1-6 0-9 1.5-10.5 1.4-1.4 4.2-1.4 10-1.4h10.7v-22h23v23h-10.9c-7.8 0-11 .4-11.4 1.3-.7 1.9-.9 18.6-.2 19.7.3.6 5.4 1 11.6 1h10.9v23h-21.7l-.7 8.4c-.4 4.6-.4 9.6 0 11l.6 2.6h21.8v21h-22v22h5.8c3.1 0 8-.3 11-.6l5.2-.7V654h-11c-9.8 0-11 .2-11 1.8l-.5 9.6c-.2 4.3-.2 8.3.1 8.8s5.4.8 11.5.8h10.9v22h-10.9c-9 0-11 .3-11.5 1.6a73 73 0 0 0 0 18.7c.4.4 5.6.7 11.6.7h10.8v22h-23v22h-22v21h22v-10.4c0-8.6.3-10.5 1.6-11 .9-.3 6-.6 11.5-.6h9.9v22h-22l-.1 5.5c0 3-.3 6-.4 6.5l-.4 5-.1 4h23v22l-11.2.2-11.3.3-.2 9-.2 10.2c0 1-3 1.3-11.1 1.3h-11v22h-23v21h22.8l-.2-9.6c-.2-7.2 0-10 1.1-11 1-1 4.2-1.4 11.4-1.4h9.9v-21h23v22h-21.9l-.3 9.2c-.2 5.1-.2 9.9 0 10.5.3 1 3.5 1.3 11.3 1.3h10.9v21h-22v22h22v23h-22v23h22v22h-22v23h-35.2c6 0 11-.2 11.3-.4.2-.2.3-5.4 0-11.5l-.2-11.1H956v23h-23v-23h-21.9l-.3 2.7c-.2 1.6-.2 6.7 0 11.5l.3 8.8h-23l-.1-3.8-.1-11.5.1-7.7h22v-22h23v-23h-11c-6 0-11 .3-11.1.7l-.5 10.8-.3 10.7c0 .4-5 .8-11.1.8h-11v-23h-23v-23h-23v-22h-23v-20h-22v20h-23v22h-23v-22h-23v-20h-22v20h-23v22h-22.5c-12.4 0-22.5-.3-22.6-.8l-.2-10.3-.2-9.6 17-.7 22.8-.6h5.7v-20h-46v20h-22v22h22l.2 11.2.3 11.3h45l.3-11.3.3-11.2h21.6l.7-4.6c.3-2.5.3-6.3 0-8.5a20 20 0 0 1 0-6.4c.6-2.5.7-2.5 11.6-2.5h11l.2 10.7.3 10.8 11.2.3 11.2.3.3 11.2.3 11.2h22l.3-11.3.3-11.2H797v23h-23v23h23v22h22v-22h-12.5c-5.2 0-7.9 0-9.2-1.3s-1.3-4-1.3-9.2v-3c0-4.6 0-7 1.2-8.2 1.2-1.3 3.9-1.3 9.3-1.3H819v-23l-11.2-.2-11.3-.3-.3-8.5v-1.8c-.3-5.7-.4-8.5 1-10 1.3-1.2 4-1.2 9-1.2H819l.3 10.8.3 10.7 11.2.3 11.2.3.3 11.2.3 11.2 11.2.3 11.2.3.3 11.2.3 11.2 11.3.3 11.2.3v21.8l-11.2.3-11.3.3-.3 11.3-.3 11.2h-23v-23h23v-22h-23v22l-11.2.2-11.3.3v22l11.3.3 8.6.2H796l.1-5.3.1-11.2v-6l-11-.3-11.2-.3V979h-23v-23h-23v23h-23v21.7l-10.6.6c-5.9.3-16 .3-22.6 0l-12-.6.4-10.8.3-10.9H637v22h23v23h-23v-23h-9.4c-5.2 0-10.1.3-11 .6-1.3.5-1.6 2.5-1.6 11.5v10.9h-23l-.2-11.2-.3-11.3h-22ZM751 252.3c0 .6 2.2.7 5.8.2h.8a950 950 0 0 0-31.5 6.1l.6-.2c.7-.2 1.3-1.9 1.3-3.7 0-3.4 0-3.4 5.3-4 2.8-.4 8-.7 11.5-.7h6.2v-22h-23v-23h-21.8l-.4-7.7a110 110 0 0 1 0-11.6l.3-3.7H728l.1 10c0 5.5.2 10.6.3 11.3s3.3 1.3 11.4 1.5l11.2.3v10.8c0 9 .3 11 1.6 11.5.9.3 6 .6 11.6.6h9.8v-23h-23v-23h23l.2 11.3.3 11.2 21.5.6.2-3.8.6-17.5c.2-1.6 1.4-1.8 11.2-1.8h11l.2 11.3.3 11.2 11.2.3 11.2.3.3 11.2.3 11.2 11.2.3 11.3.3V250h23v-22h-23v-23h-23v-23h-23v-23l6.7.1h11.5l4.8-.3V137h-23v-23h-22v23h22v22h-22v23h-23v-23h-23v-22h-23v-23h-22v23h-23v22h-23v23h-23v-23h-22v23h22l.2 11.3.3 11.2 11.2.3 11.3.3V227h-23v-22h-21.7l-.7-3.7c-.3-2.1-.6-7.3-.6-11.6V182h-22v-11c0-10.9 0-11 2.5-11.6 1.4-.3 4-.4 5.6 0s5.6.3 9 0l5.9-.7-.6-5.2c-.4-3-.3-7.8 0-11l.7-5.5H637v-23h23V91h-23V68h-22v23h22v23h-22v23h-23v-23h22V91h-22V68h-23v23h-23v23h-22v23h-23v-23l22.5-.5.3-11.2.3-11.3H501V46h-23v45h-23v23h-22v23h22v21.8l6 .4c3.4.2 8.6.2 11.6 0l5.4-.4V137h23v21.8l11.3.6 11.5.6s.2 5 .2 11v11h22l.2 11.3.3 11.2 11.2.3 11.2.3.3 11.2.3 11.2 11.2.3 11.3.3V205h-23v-23h23v10.8c0 6 .3 11.2.7 11.5s5.6.7 11.6.7h10.8l-.3 11.3-.3 11.2-11.2.3-11.2.3-.3 11.2-.3 11.2-11.3.3-11.2.3v6.8c0 3.8.3 7.1.7 7.4s.1.2-.7 0c-6.7-2-20.6-5.3-21.9-5.3s-1.6-.9-1.3-4.4l.4-4.5-9.4-.3c-11.9-.4-12.8-.2-12.8 3 0 2.5 0 2.5-6.8 1.8-3.7-.3-10-.7-14.2-.7s-6.4-.4-5.1-.6c1.3-.3 2.6-1.4 2.9-2.5.5-1.9 1-2 7.1-1.6 3.6.3 8.6.3 11 0l4.5-.7.3-10.8.4-10.6 10.6-.3 10.8-.3.3-11.3.3-11.2H524v23h-23v-23h-23v-23h23l.5 22.5h22v-22l-11.2-.3-11.3-.3V159h-23v23h-23v-23h-22v23h22v10.9c0 9 .3 11 1.6 11.5.8.3 6 .6 11.5.6h9.9v23h-23v22h23v2.4c0 2 .6 2.5 3.3 2.9q3.9.4-1.5.5c-4.2.2-16.5 1.6-22.8 2.6-2.4.4-2.5.3-2.2-3.5l.4-3.9H433v12.5l-11.5 3.6-11.5 3.6V261c0-7.7-.3-10-1.5-10.3-.8-.4-6-.3-11.5 0l-10 .6V273h-23v-23h23v-22h-23v21.8l-11.5.7-11.5.7V273h-22v-11c0-6-.3-11-.7-11.1-2.6-.5-19.1-.6-20.6-.2s-1.7 1.8-1.7 11.4V273h-23v-22h-22v22h22v18l-22.5.5-.1 7.5c0 4.1 0 8 .3 8.8.4.8 3.6 1.2 11.4 1.2H273v21h-22v20h22v20h-22v20h22v-19.8l8.3-.4 8.3-.3-5.3 8.2c-3 4.5-5.8 9.5-6.4 11.1-.8 2.3-1.5 2.9-3 2.5q-2-.7-1.9 1.6 0 2 1 2.1c1 .1-.9 3.7-3 8.2l-4 8.1-8-.2-8-.2V433h-23v-22h22l.2-7.2.2-10.3.1-3-22.5-.6V411h-23v-21h-23v-20h23l.5 19.5h22l.6-19.5h10.8c7.8 0 11-.3 11.3-1.2a55 55 0 0 0 .3-15.8l-.7-3H228v-20h22v-21h-22l-.2-8.7-.3-8.8-22.5-.6V273h23v18h11.6c10.2 0 11.5-.2 11-1.6-.3-.8-.6-4.9-.6-9V273h-22v-10.9c0-7.9-.3-11-1.2-11.3-.7-.1-6-.2-11.6 0l-10.2.3V273h-23v-23h23v-22h23v22h22v-22h-22v-23h-23v-23h-23l-.2-11.2-.3-11.3-21.5-.6-.2-5.7a621 621 0 0 1-.6-28.4L159 114h-22V91h-23V68H91V46H69v22h22v23H68v3.3l.3 11.2.2 8 22.5.6V137H80c-9.5 0-11 .2-11.4 1.8-.7 2.2-.7 39.2 0 41.4.5 1.6 2 1.8 11.4 1.8h11l.5 22.5 11.2.3 11.3.3V228H91v-23H68v-23H46v23H23v10.9c0 9 .3 11 1.6 11.5.8.3 6 .6 11.5.6H46v22h22v-22H46v-23h22l.1 10c0 5.5.2 10.6.3 11.3s3.3 1.3 11.4 1.5l11.2.3v11c0 9.7-.2 11-1.7 11a133 133 0 0 1-12.4.7l-8.7.2.1 10.8.2 10.7 22.5.6v17.8l-22.5.6-.6 17.5H46v-18h22v-18H46v-21.8l-10.2-.4a91 91 0 0 0-11.5 0c-1 .3-1.3 3.5-1.3 11.3V273h23v18H23v18h23v21H23v20h23v-20h22l.2 9.8.3 9.7 22.5.6V370h23v20h23v21h-23v22H91v-22H68v-21H46v21H23v22h23v22h22v-9.4c0-5.2.3-10.2.6-11 .5-1.3 2.5-1.6 11.5-1.6H91v22H69.3l-.5 10.8c-.3 5.9-.3 11-.1 11.4s5.3.8 11.4.8H91v23H68v-23H46v23H23v22h10c5.4 0 10.6.3 11.4.6 1.3.5 1.6 2.5 1.6 11.5V546H23v23h23v22h22v21H46v22H23v20h23v21H23v22h23v21H23v22h23v22h22v-22h23v20.8l5 .7c2.7.4 7.3.6 10.2.5l6.5-.1c1 0 1.3 3 1.3 10.6V783H91v-21H69l-.5 3.3c-.3 1.7-.4 6.4-.2 10.2l.2 7 11.3.3 11.2.3V804h23v43H91v20.7l6.2.7c3.3.3 8.5.6 11.5.6h5.3v21h23v-10.5c0-10.4 0-10.5 2.5-11.1a44 44 0 0 1 9.8 0l8.5.6c.9 0 1.2 2.8 1.2 10.5V890h23v-21h-23l.2-11.2.3-11.3h7l11.3.3 4.2.2v20.7l3.8.7c2 .3 7.2.6 11.4.6h7.8v21h23v-21l-11.5-.2-11.5-.2v-21.4l-3.1-.6a96 96 0 0 0-11.5-.6H182v-20h23v9.8c0 5.4.3 10.2.7 10.5s5.5.7 11.5.7H228v22h23v21h22l.2-10.8.3-10.7 5-.3c2.8-.2 7.8 0 11.3.3l6.2.7V847h23v10.5c0 7.7.3 10.5 1.3 10.6l3.2.3 9.8.4 7.7.2v21h23v-10.4c0-8.6.3-10.5 1.6-11 .8-.3 6-.6 11.5-.6h9.9v-21h23v22h-23v21h23v-10.5c0-9.3.2-10.5 1.8-10.6 8.4-.5 17.1-.5 19-.2 2.1.5 2.2 1 2.2 11V890h22v-20.9l4.6-.7c2.5-.3 6.4-.4 8.7 0s5.4.2 7 0l2.7-.6V847h23v21l6.3.2c6.7.1 12.2.4 15 .6 1.5.2 1.7 1.4 1.7 10.7V890h22v-10.4a36 36 0 0 1 1-11 60 60 0 0 1 11.5 0l10.5.7V890h23v-20.8l7.3-.6c6.3-.5 9-.4 14.5.2.9.2 1.2 3 1.2 10.7V890h22v-21h3.8l22.7-.3 19-.2.3-10.7.3-10.8H706v22l-4.2-.2h-11.5l-7.3.2v21h11c6 0 11-.1 11-.2.4-8 1.4-20.4 1.7-20.8.6-.7 18.2-1 20-.3 1 .4 1.3 3 1.3 11V890h23v-20.8l4-.7c2.2-.4 7.4-.4 11.5 0l7.5.7V890h22.5v-9.6c0-5.3.3-10 .7-10.6.3-.7 4.9-1.1 11-1.2l10.3-.1.3-10.7.3-10.8H842v22h-23v21h23v-21h23v21h23v-21h22v-22h-22v-21h22v-22h-22v-21h22v-21h-22v-22h-23v-22h-23v-21h23l.5 20.5h22l-.2-2.5c-.1-1.4 0-6 .3-10.2l.6-7.8H910v-22h-22v-14.9q.2-4.2-1.2-5.2c-.7-.5-6-.9-11.5-.9H865v-20h-23v-22h23v20.9l4.5.7c2.5.3 6.9.3 9.8 0 8.5-1.1 8.7-1 8.7 10.5v9.9h21.9l.3-9.6c.2-5.3.1-9.8-.1-10s-5.3-.4-11.3-.4H888v-22h11c8 0 11-.3 11.1-1.2v-10.5l-.1-9.3h23v21h-22v22h22v20h23v21h-23v-9.9c0-8-.3-10-1.6-10.5-.9-.3-5.8-.6-11-.6h-9.3l-.3 9.8c-.2 5.3-.2 10 0 10.5s5.2.7 11.3.7H933v22h-22v21h22v22h-22.8l.2-10.7.1-10.8-11.2-.3-11.3-.3v22l11.2.3c11.2.3 11.2.3 11.3 2.8l.3 10.8.2 8.2h22v21l-11.2.2-11.3.3v3l.3 10.2.2 7.3h22v22h-22v21l10.8-.2 10.7-.3.6-20.5H956v21h-23v20.8l10.3.4c5.6.3 10.8.3 11.5 0 .8-.3 1.2-3.4 1.2-10.8V847h23v-21h22v-22h-22v22h-23v-22h22v-21h-22v-21h11c8.1 0 11-.3 11-1.2.1-.7 0-5 0-9.3v-1.3c-.1-5-.1-7.6 1.1-8.9s4-1.3 9.6-1.3h12.3v-22l-11.2.2-11.3.3V740H956v22h-23v-22l11.3-.2 11.2-.3.3-10.7.3-10.8H933v-21h23l.5 20.5 10.8.3 10.7.3.1-6.6V699c0-1.9-.8-2-11.1-2h-11v-22l11-.2 11.1-.3.4-7a59 59 0 0 0-.1-10.2l-.6-3.3H956v-20h13.1c4.8 0 7.3 0 8.5-1.2s1.2-3.8 1-9v-2.3l-.2-9-11.2-.3-11.2-.3v-20.8l11.2-.3 11.3-.3v-4c.1-2.2.3-7 .3-10.7l.2-6.8h22v-23h-22v23h-23v22h-23v-22h-23v-23h-21.8l-.7-9.8c-1-13-.9-13 12.2-12.6l9.8.3.3 11 .3 11.1H933v-22h-23v-23h23v21.7l4.4.5c2.5.3 7.7.3 11.5 0l7.1-.5V501h-23v-23h23v-23l11.3-.2c11.2-.3 11.2-.3 11.3-2.8l.2-10.7.2-8.3h22v-22h-22l-.5-20.5-22.5-.6V370h23v20h22v-20h-22l-.2-9.7-.3-9.8-22.5-.6V330h11c6 0 11-.3 11-.7a77 77 0 0 0 .3-15l-.6-5.3H956v-18h-23v-18h23v-21.8l-9.7-.4-2.7-.1c-5.5-.2-8.2-.4-9.5 1-1.2 1-1.1 3.5-1.1 8V273h-21.8l-.7 6.3-.2 1.3c-.5 4.8-.7 7.2.4 8.6 1.2 1.5 4.4 1.4 11 1.6l11.3.3V309h-23v-18h-22v-18h22v-10.9c0-7.8-.3-11-1.2-11.3a91 91 0 0 0-11 0l-9.8.4V273h-23v-22h-23v22h-13c-5 0-7.4 0-8.6 1.2-1 1.1-1 3.3-1 7.5v1.8l.1 7 11.3.3 11.2.3V309h-23v-18h-22v18h-20v-18l9.8-.2 9.7-.3v-4.7l-.3-8.8-.2-4h-19v-23h-2.9c-1.7 0-6.5.7-12.8 1.8 3.6-.9 4.5-1.7.7-1.8-5.3 0-11 1.1-11 2.2M159 370v20h23v21h23v22h23v22h-23v23h23v-23l22.5-.5.3-10.7.3-10.6 4.2-.3 4.3-.4-3 11.6c-2.4 9.3-3.4 11.5-4.6 11.2-1.3-.4-1.7.5-1.8 4.9 0 4 .1 4.8.8 3.3q1-2.3.3 1.5c-.3 2-1 6.2-1.3 9.5s-.8 5.4-.9 4.7c0-.9-3-1.2-10.6-1.2H228v23h18.9l.4-3.3q.4-2.5 0 1.8-.4 6.6-.3 14.7v9.8h-19v-23h-23v21.8l8 .7c4.3.4 8.3.4 8.9 0 .5-.3 2.1-.3 3.5 0 2.6.7 2.6.8 2.6 11.6V546l8.3.2h10.4c2.4-.3 2.5.1 3.8 8.3.3 2.2.9 5 1.2 6.4q.6 2.5-.6 1.7-1-.8-1.1 3c0 2.8.3 3.5 1.5 3q1.4-.8 2.5 3.7c1 4.1 3.7 13.7 4.6 16.8.3 1.2-.4 1.5-3.3 1.5-3.6-.1-3.8.1-4.3 3.4-.3 1.9-.3 6.7-.2 10.8l.4 7.3 6.6-.3q6.9-.3 6.5-1.5-.2-1.2.7-1.3c.9-.1 1 .6 1 1.3s1.8 5 4 9.6 4 9 4 10.1q0 1.7 1 2.5c.4.3 2.9 4 5.4 8.3l6.7 11 2.2 3.3-4-.5c-2-.3-5.7-.5-8-.5l-4.3-.1v-20h-21.7l-.7-5.2c-.3-3-.6-7.9-.6-11V612h-22v22h23v20h9.4c5.2 0 10.2.3 11 .6 1.3.5 1.6 2.4 1.6 10.5v9.9h23v22h-23v-22h-22v22h21.9l.6 21-23 .5.4 21 .5 21.3 11 .9 10.6.6V783h23v-21h-23v-22h23v-22h23v22h13.2c4.8 0 7.2 0 8.4-1.2s1.2-3.7 1-8.9v-2.4l-.1-9-22-1-.3-9.8c-.3-12.5.7-13.2 8.6-5.5q12.4 11.8 27.6 23c8.5 6.3 9 6.9 9 10.5l.1 3.8h4.5q4.3 0 4.3-1.1c-.1-.6 3 .7 7 3l7.2 4-.3 7.8-.3 7.8h23.3l-.4-2.8-.4-2.7 7.3 2.5c4 1.4 7.3 2.8 7.3 3.3s-3.1.7-7 .7h-7v21h23v21h22l.2 10.8.3 10.7 11.3.3 11.2.3V847h-23v22l-11-.1h-11V847h-23v-21h-23v-22h-23v-21h-23v21h23l.2 10.8.3 10.7 11.3.3 11.2.3V847h-23v22l-11.5-.1H341V847h-22v-21h-23v21h-23v21.6l-22 .2-.1-9.1-.3-10.7c0-1.2-2.2-1.5-11.3-1.8L228 847v-21h-23v-43h-23v-21h-23v-22h-22v-22h-23v-21H91v-22h23v-21H91v-20h23v-22H91v-21H68v-22H46v-23h22l.5 22.5 11.2.3 11.2.3.3 10.7.3 10.7 11.3.3 11.2.3V612h23v22h-23v20h23v-19.8l10.8-.3 10.7-.4 1 20 11.3.3 11.2.3V675h23v-11.4c0-4.5 0-6.8-1.2-8.1-1.3-1.5-4.3-1.5-10.6-1.5H182v-20h-22.6l.1-21.5-11.2-.3-11.3-.3V591h-23v-22H91v-23H68v-22H46v-23h22v9.3c0 13.3 0 13.3 6.3 13 2.9-.1 7.8 0 11 .4l5.7.6V546h23v-22H91v-23h23v-23H91v-23h23v-22h23v22h21.9l.2-10.7.2-10.8-22.3-.6V411h22v-21h-22v-20h-23v-20H91v-20H68v-21h23v-18h23v-18H91v-23h23v-22h23v-23h-23v-23H91v-45h23v-23H91V91h23v23h22v12.6c0 5.3 0 8-1.3 9.3s-4.2 1.1-9.8.9l-1.6-.1q-8.1-.4-9.2.7c-.5.6-.7 10.5-.3 22.8l.5 21.8H137v23h22v-23h-21.9l-.1-9.3v-11.5c0-2.1.3-2.2 11-2.2h11l.2 11.2.3 11.3 11.2.3 11.2.3.3 11.2.3 11.2 11.3.3 11.2.3V228h-23v10.9c0 9-.3 11-1.6 11.5-.9.3-6 .6-11.5.6H159v22h23v18l-22.5.5-.3 8.8-.3 8.7H137v21h22v-21h23v-18h23v18h23v21h-23v20h23v20h-23v-20h-23v20Zm618 183.4v-24.5l.2 6.4.3 11.2 19.5-.7V538a89 89 0 0 0-.6-11l-.7-3.1h-18.6v-41.4l.1 6.7.3 11.2 9.7.3 9.8.3v21.6l5.2.6c3 .4 7.9.7 11 .7h5.8v-23h-22v-23h-20v-23h20V433l9.8-.3c5.3-.2 10.3 0 11 .3 1.1.5 1.4 3 1.3 11.3l-.2 10.6H797v23h22v-23h23v-22h-23v-22h-22v22h-20v-39.3l.2 6.6.3 10.2h19v-7l.3-10.2.2-3.3h-20v-20h20l-.1-4.5V353l.1-3h-20v-20h20v-21h22l.5 20.5 22.5.6V350h23v-20h-23v-21h23v21h23v20h10.8c6 0 11-.2 11.3-.4.2-.2.3-4.7 0-10l-.2-9.6H888l-.6-20.5-22.5-.6V291h-23v-18h23v18h23v18h22l.2 4.3.3 10.2v6l22.5.6V350h23v20h-23v20h23v21h23v22h-23v22h-23v23h-23v23h-12.8c-4.9 0-7.4 0-8.8-1.2-1.4-1.4-1.4-4.3-1.4-10.3V478h-22v23h23v23h-23v-23h-23v23l11.3-.3 11.2-.2.3 11.3.3 11.2h23v23h-23v-23h-23v23h23l.2 10.8.3 10.7h22l.3-10.8.3-10.8 11 .3 11 .3V590c0 .6-4.5 1-11.1 1h-11v21h-23v-21h-23v-22h-23v-23h-22v23h22l.2 10.8.3 10.7 11.2.3 11.3.3V612h-23v22h-22v20h22v-12c0-4 0-6.2 1-7.3 1.2-1.3 3.9-1.2 9.6-1l2.6.1 9.8.3V654l-11.3.3-11.2.3-.6 20.5H797v22h22v-22h23v-21h23v21h23v22h-23v-22h-23v22h-12.6c-5.3 0-8 0-9.3 1.3s-1.2 4.1-1 9.6l.1 1.6.3 8 11.3.3 11.2.3V740h23v21l5.3.2 14.5.7 3.2.1v21h-23v21h23v22h-23v21h23v21.9l-23-.2V847h-23v-21h-23v21h-12.4c-5.6 0-8.2 0-9.5-1.3-1.1-1.2-1.1-3.5-1.1-8v-2.5c0-4.4 0-6.7 1.1-7.9 1.3-1.3 4-1.3 9.5-1.3H819v-22l-11.2-.2-11.3-.3-.3-8v-1.7c-.2-5.4-.4-8.1 1-9.5 1.2-1.3 3.9-1.3 9.2-1.3H819v-21h-22v21h-23v21h23v22h-23v21h23l-.2 22H774v-22h-23v22h-23v-22h-22v-21h-23v-22h-46v-21h-10.9c-12 0-12 0-11.6-6.8l.3-8.7.2-5.5h7.3c4 0 8.9-.3 11-.6l3.7-.7v-10.2c0-7.4-.4-10.5-1.2-10.8q-.7-.1-.8-.4c-.2-.5 1.8-2 11.2-8.3l1.3-1c6.6-4.4 15.2-10.5 19-13.6 7.4-5.8 19.5-17.3 19.5-18.5q-.2-.7-1.7-1.3c-1.6-.5-1.7-1.5-1.3-8l.5-7.5-4.5-1a182 182 0 0 0-17.7-3.1c-1 0-1.3 2-1.3 7.4 0 6.3.3 7.5 1.8 7.9 2.4.6-1.1 0-16.3-2.5a84 84 0 0 1-12-2.4l3.8-.8c2.6-.6 2.8-1 2.7-4.4-.3-7.2-.3-7.2 4.3-7.3l4.2-.2-5.4-1c-4.1-.8-5.6-.7-5.9.1q-.2 1.2-11.4 1.2h-11l.4 4.4c.3 4.3.2 4.4-2.2 4l-13.5-2.4c-6.1-1-10.2-1.9-9.2-2s1.7-.6 1.7-1.4c0-2.1 2.3-2.6 12.6-2.6 9.4 0 9.4 0 9.4-2.5 0-1.4.1-2.8.3-3.2 0-.4-2.9-1.3-6.6-2.1l11.4 2c12.9 2.2 25.3 4.3 27.6 4.5s4.3.9 4.3 1.4.6.6 1.3.4c.6-.3 3.5 0 6.2.5s10 2 16.2 3l31.6 6c-.2 0-.3 2.7-.3 6v6h22v3.3l.3 10.2.2 7 11.2.3 11.3.3V740h23v-22l11.2-.2c9.2-.2 11.3-.6 11.4-1.8l.3-10.2.1-8.8h-11.2c-6.3 0-9.3 0-10.6 1.5-1.2 1.3-1.2 3.6-1.2 8V718h-23v-21l18.5-.2-8.5-1.9c-10.7-2.3-14.1-2.4-13.4-.4.8 2-2.6 2.7-11.6 2.3l-7.5-.3v-3.7c0-2.8 0-3.5-2.2-4.1a221 221 0 0 1 22.9 3.7 319 319 0 0 0 27.6 5s.2-25.8.2-64.6l6.8.4c3.7.1 8 .2 9.4 0l2.7-.3.3-10.2.3-10.2 11.3-.3 11.2-.3V591h-22l-.2-10.7-.3-10.8-9.7-.3-9.7-.3zm-685.3 402c.3.3 5.5.6 11.5.6H114v23h23v-23h22v23h23v-23h-23v-23h-22v-22h22l.5 21.5 11.3.3 11.2.3v10.7c0 6 .3 11.2.7 11.5s5.5.7 11.5.7H205v23h23v-23h22v-23h-22v-22h23v22h22l.5 22.5 11.3.3 11.2.3V979h-23v-23h-22v23h22v22h23v-22h23v-23h-23v-23h23l.5 22.5 10.8.3 10.7.3V979h23v-23h-23v-23h-22v-22h22l.2 10.8.3 10.7 11.2.3 11.2.3.3 11.2.3 11.2 11.2.3 11.2.3.3 11.2.3 11.2 11.3.3 11.2.3v21.9h23v-22h22v22h23v-22h23v22h11c9 0 11.2-.3 11.6-1.5.4-.9.3-5.8 0-11l-.8-9.5H501v-23h21.9l.3-11c.2-6.2.1-11.4-.1-11.6s-5.3-.4-11.3-.4H501v-22h23v22h22v23h-22v23h22v22h23v-22h23v22h22v-22h-22v-23h21.9l.3-11c.2-6.2.1-11.4-.1-11.6s-5.3-.4-11.3-.4H592v-22h22l.1-5.7.3-10 .1-4.3H592v20h-23v-20h-23v20h-12.3c-5.4 0-8.2 0-9.4-1.3s-1-4-.7-9.4V899l.6-7.9H501v20h-23v-20h-23v20h-22v-11.9c0-4 0-6.3-1-7.4-1.3-1.3-4-1.2-10.1-1l-2.6.1-9.3.3V911h-23v-20h-23v20h-23v-20h-22v20h-23v-20h-23v20h23v22h-23v-22l-11.2-.2-11.3-.3-.1-9.5-.2-9.5-11-.3-11.2-.3V911h-23v-20h-23v20h-23v-20h-22v20h-23v-20H91v20H68v-20H46v20H23v22h23v-22h22l.2 10.8.3 10.7 11.3.3 11.2.3v10.7c0 6 .3 11.2.7 11.5M523 337.6c0 3.7.2 6.8.4 7.3l-.2.1c-3 0-3.1 3.6-3.2 132.8l-7.4.4c-5.4.2-7.7 0-8-1q-.6-1-2-1.2c-1.3 0-1.6-1.7-1.6-10.5V455h-23v-22h-23v22h22.9l.6 21H467c-11.3 0-11.6 0-11.6-2.2l-.2-10.6-.2-8.2h-22v-22h-23v22h22.9l.6 21H410v-21h-23v-22h-23v-22h23v-21h23v-20h23v-20h22v-4q0-4.2-1.5-4-1.4 0-1.5-.8c0-.6 16.6-4.3 26.5-5.8q3.6-.7 1.3.6c-1.4.9-1.8 2.5-1.8 7.5v6.5h-23v20h23v-20l22.5-.5.3-4.8c.2-2.7 0-6-.3-7.4-.5-2.3-.9-2.5-6.5-2.1-3.3.1-6-.1-6-.6s5-.6 11.4-.2l11.4.7 11.9-7.9c18-12 32.7-20.6 33-19.3.3.7 3 1.1 6.9 1.1h6.4v3.5c0 2 .5 3.5 1 3.5a41 41 0 0 0 7.3-3.3l6.2-3.2-7.2-.3-7.3-.3v-9.6l38.3-18.5-4.9-2.9c-2.7-1.6-5.6-3-6.4-3-4-.3 4.4-1.7 10.8-1.8l7.2-.1.2-7.3c0-6.5.3-10.7.7-14.5 0-.9 3-1.2 11.1-1.2h11v23h11c10.1 0 11 .1 11.5 2q.4 2 2.6 1.6c-12.8 4.4-25 8.8-34.1 12.6a603 603 0 0 0-91.3 47.4l-3 2a215 215 0 0 0 14-9.8q.4-1-.6-.4-1.1.9-1.3-4.6l-.1-5.3-.6 4.5c-.3 2.5-1 4.4-1.6 4.4s-2.1.3-3.5.8-5.8 1.3-9.7 1.5l-7.3.6Zm136.3 57c0-30.9 0-51.8.2-65.2v11.3l.3 40 .2 9.4 22.5-.6.6-19.4 22.4-.6v-19l-22.5-.6V330h-22.1l.4-7.7c.2-4.3.8-8.9 1.2-10.2q1-2.7-.5-1.6-1.3.8-.6-.3.9-1.2 11.2-1.2H683v-3.5q-.1-2.9-.8-3.5h.3q1.2 0 1.7-.9c.3-.8 11.6-4.3 21.8-6.9V309h22v-8.9c0-7-.3-9-1.5-9.5a19 19 0 0 0-7.1.5l4.1-1.1a106 106 0 0 1 12.7-3c-4.6 1-9 2.4-8.6 3.1.3.5 4.8.9 10 .9 9.4 0 9.4 0 9.4-2.5 0-2.2-.4-2.5-3.5-2.5h-.3 3.8v193h-87.5Zm-98 291.8-12 3.6-3.3.8V675h-21.9l-.7 5.6c-.8 6.5 0 12.4 1.8 13.5 1.2.8-4.8 1.2-20.4 1.3-3.8 0-6-.2-5.2-.7 1-.6 1.4-3.1 1.4-10.3V675h-23l.2-10.2.3-10.3 10.6-.3 10.6-.3.7-3.7c.3-2 .6-6.5.6-9.9 0-7.4.6-7.8 11.5-6.8l7.5.6V612h-19v22h-23v-22h-23v22h-22v-13.7l.1-8.3h21.6l.5-4.2c.3-2.4.4-7 .2-10.3l-.2-6-11.1-.3-11.1-.3V612h-23v10.1c0 5.6 0 8.3-1.4 9.6s-3.9 1.3-9 1.3H387v-21l11.3-.2 11.2-.3.3-10.2.3-10.2 11.1-.3 11.3-.3.3-10.7.3-10.8h21.7l.3-9.7.4-9.8-11.2-.3-11.3-.3V569h-23v22h-23v-22h23v-20l-11.2.2-11.3.3-.3 9.7-.3 9.8H364v-20h-10.9c-9 0-11 .3-11.5 1.6-.3.8-.6 5.3-.6 10v8.4h23l.2 10.8.3 10.7 11.3.3 11.2.3V612h-22.9l-.3 6.3-.3 6.2-8.6-12.5h9.1v-21h-9.5c-7 0-9.5.3-9.5 1.3q-.1 1.9-5-10.5c-1.6-3.8-1.7-4.6-.5-4.1s1.5-.5 1.5-4V569h-3c-2.6 0-3-.5-4.1-4.2-.7-2.4-1.3-6-1.3-8s-.4-3.8-.9-3.8-.7-1.2-.7-2.6v-2.7l22.8.3c12.5.2 51.6.3 87 .2 50.6-.2 64.2-.5 64.2-1.4 0-1 2-1.2 7.5-1l7.5.4V524h-15l.1-13.2c0-7.3.3-12.5.6-11.6.4 1.5 1.6 1.8 6.6 1.9 3.4 0 5.6.3 5 .6-1.5.5-1.7 5.1-.3 7.3 1.9 3 2.5-.6 2.8-15.7l.2-8V500c0 130.3.2 151.1 1.4 151.1q1.4 0 1.8 1c.1.5 3.2 1.1 6.8 1.4 6.6.6 8.7.9 27 4.4 5.8 1 15.3 2.8 21.3 3.7s10.7 2.2 10.7 2.6c0 .5 1.5.9 3.3.9h.9c-1.7.2-1.6.9-1.3 5l.3 5H569v3c0 1.5.2 3.5.5 4.2.4 1-2 2.2-8.2 4.2M182 546h-23v23h23v22h-23v10.5l.2 10.5H182v22h23v20h23v-20h-23v-22h23v-21h23l-.5-21.5-11.2-.3-11.3-.3V546h-23v-22h-23v-23h23v-23h-23v-23h23v-22h-23v-22h-23v22h23v22h-23v23h23v23h-23v23h-22v-23h11c8.1 0 11-.3 11-1.2v-11.6l-.1-10.2H137v-23h-23v23h23v23h-23v22.6l11.5.2 11.5.3V546h-23v23h23v22h10.9c7.8 0 11-.3 11.3-1.2.2-.7.4-5.6.4-10.8l-.1-9.5-11.3-.3-11.2-.3V546h22l.2-11.2.3-11.3 5-.3c2.7-.2 7.8 0 11.2.3l6.3.7Zm410 301v22h-23v-22h-23v22l-11-.2-11-.3V847h-23l-.1-7.7v-10.5l.2-2.8H523v-22h-22v22h-23v-22h-23v-21h22.7l.7-4.6c.3-2.5.3-5 0-5.6q-.5-1 2.2-.5c1.6.3 7 .9 11.9 1.2l9 .7-.3 4.4-.4 4.4H478v21h23v-21h23v-9l-3.7-.2c-2.1 0 .7-.4 6.2-.8s12.3-1 15-1.4l5-.7-.7 12.1H524v21h22v-21h23v-8.5c0-6 .4-8.7 1.3-9 8.6-2.4 31.7-10.5 37.2-13l7.2-3.3-.5 4.6c-.3 2.6-1 5-1.5 5.3q-.8.7.4 1.2c.8.3-2 .6-6.1.6q-7.7 0-6-.9c1-.7.3-1-3-1-2.5 0-5.1.5-5.8 1.2q-1.2 1.3-1.2 12V783h-22v21h23v-21h23.1l-.1 6.8V804h22l.2 10.8.3 10.7 22.7.3 22.8.2v21h-46v22h-13.9c-4.5 0-6.6 0-7.6-1-.8-1-.7-2.7-.6-6.2v-2.4c.2-2.9 0-6.8-.4-8.8l-.7-3.6zm250-369h-23v23h23zh23v-23h23v23h22v-23h23v-22h23v-22h-23v-21h-23v-20h-22v-20h-23v20h-23v-20h-23v-20h-22v20h22l.2 9.8.3 9.7 22.5.6V390h-23v-20h-22v20h22v21h23v22h23v22h-23Zm-176.7 45.2c2.8.2 8 .2 11.5 0l6.2-.4v-21.5l-7.6-.6-1-.1h18l16.9.1-3.3.6V524h-23v22h-11.4c-10 0-11.5-.2-11.9-1.7q-.4-1.3 0 1.7c.1 2 .3 7.9.3 13.3v9.7h23v-23l11.2-.2 11.2-.3.4-10.5c.2-5.8.5-10.6.6-10.7s5-.6 11-1l10.6-.6V512c0-8-.2-10.4-1.2-11.2h9.5l10.7.2v80c0 44-.3 80-.7 80.3h-.2c.3-.3.3-1.9.1-3.7l-.4-3.6h-7.2c-7.5.1-10 .8-10.3 2.7-.3 1.2 1.5 2 7.7 3.2l-22-3.9-16.5-3a202 202 0 0 1-15.6-3.2l-1.5-.2q.6 0 1-.4c1.2-.8 1.2-3 1.4-7.5l.3-7.7H660v11.7l5.3 1.2 7 1.5-1.8-.3-11-1.7v-73l-.2-72.9h.7v22.4ZM273 804v22h-22v-4.8c0-2.7-.3-7.7-.6-11l-.7-6.2H228l.6 21.5 11.3.3 11.2.3V847h22v-21h23v-22h23v22h22v21h23v-21h-23v-22h-22v-21h22l.2-10.7.3-10.8 11.3-.3 11.2-.3V740h-23v22h-22v-22h-23v20.7l6.8.6c3.7.4 8.8.7 11.4.7h4.8v21h-23v21zv-21h-22v-.1l-.2-6.6-.1-10.5V762H205v-22h-23v-22h-23v-21h23l.2 10.3.3 10.2 11.2.3 11.2.3.3 10.7.3 10.7h22l.6-21.5h23.2l-.7-5.2c-.3-3-.6-7.7-.6-10.5V697h-22v-22h22v-19.7l-9.1-.5-1.8-.1c-5.8-.4-8.6-.6-10 .7-1.1 1.2-1.1 3.6-1.1 8.2V675h-23v22h-23v-22h-23v22h-22v21h22v22h23v21h5.4c2.9 0 8 .3 11.5.6l6.1.7V783h34.8l11.2-.2V804Zm277-440.7 9.8-6 11.3-6.8a382 382 0 0 1 33-17.4l-3.3 1.6-9.2 4.8.3 5.3.3 5.2H614v-10.4c0-5.5 0-8.4-1.3-9.2q-.7-.4-1.8-.2l11.5-5.2c-3.8 2-6.2 3.5-6 4 .5.6 4.9 1 10.6 1h9.8l.4-6c.1-3.2.2-5.8.1-6 .4 0 .6 31.7.7 72h-11.4c-9.5 0-11.5-.3-12-1.6-.3-.8-.6-5.3-.6-10V370h-22v20h23l.5 20.5h22l.3-10.2.2-6.5V433h-13.4c-5.2 0-7.9 0-9.2-1.3-1.4-1.4-1.4-4.1-1.4-9.8V411h-22v-21h-23v-20h-18v20h18l.5 20.5 22.5.6V433h23v22h22l.2 9.3c.2 5 .5 0 .6-11l.2-16V479h-88ZM624 640a123 123 0 0 1-10.1-2.3q.5-.6.8-1.7c.5-1.8 1.4-2 11.2-2 6 0 11-.2 11.2-.4s.3-5.2 0-11L637 612h-22v22h-8.2c-4.5 0-7.8.3-7.5.7s2.2.8 4.7 1.4l-19.6-3.4 3.4.2 4.2.1v-21h-23v18l3.8.6 3 .5c-13-2.3-24.5-4.4-24.7-4.6-.4-.2-.8-28.6-1-63.2l-.2-62.8h1l.3 11.2.3 11.8 6.5-.3h1.1c4.8-.2 7.3-.3 8.5.8 1.4 1.3 1.4 4 1.4 9.8V546h23v-14c0-4.5 0-6.5 1-7.5.8-.8 2.5-.8 5.5-.9h2.5l8.7-.4 4.2-.2.3-11.5.3-10.7h11.8l11.7.2-.5 140.5-2.5.2a69 69 0 0 1-11-1.7m104 100v-22h-22v22h-23v22h-46v21h46v21h23v22h22v21h23v-21h-23v-22h23v-21h23l.2-10.7.3-10.8 11 .3 11 .3v-21.6l11.2-.3 11.3-.3V718h-22v22h-23v22h-23v-22ZM433 956v23h-23v-23h-23v-23h-23v-22h23v22h23v-22h23v22h22v-22h23v22h23v23h-23v23h-23v-23Zm45-545v22h23v22h8c7.2 0 7.8.2 7.3 1.9-.3 1 0 2.9.7 4.1 2.2 4 3 .2 3-14.3V433h-9.4c-9.4 0-9.4 0-10-2.7a51 51 0 0 1 0-11l.6-8.3h18.9l-.3-10.6-.3-10.7-9.1.2-9.1.2-.7-3.2c-.8-4-.8-11.7 0-14.6.6-2.2 1.1-2.3 10-2.3h9.4v-20h-19v20h-23v20h-23v-20h-22v20h-23v21h-23v22h23v-22h23v-21h22v9.9c0 8 .3 10 1.6 10.5.8.3 6 .6 11.5.6zM819 0h23l.2 11.3.3 11.2 22.5.6V46l5-.1 9.5-.1h6c1.2.2 1.5 2.1 1.5 11.2v11h-22V46h-23v22h-23V46h-13.6c-4.8 0-7 0-8-1q-.9-1.2-.6-5.2V38l.1-9.8.1-5.2h-22.8l-.4 10.4c-.2 5.8-.5 10.6-.8 10.9s-5.3.8-11.3 1.1l-10.7.7v-23l22.5-.6.3-11.2L774 0h23v23h22Zm69 433h-23v-22h-23v-21h23v-20h23v20h21.8l.7 5a54 54 0 0 1 .4 9.7q-.5 4 .4 5.2c1 1.1 3.3 1.1 8.5 1.1H933v22h-23v22h-22ZM683 228v-23h-23v-23h23l.2 11.3.3 11.2 11.2.3 11.3.3V228h22v23h-21.8l-.4 5.1c-.1 2.8 0 5.5.3 6s2.7.2 6.1-.4l-3.2.8a657 657 0 0 0-39.9 11.6c4-1.8 4.1-2 1.6-2q-2.6 0-2.7-1.6c0-3.2-2.2-5.1-5.1-4.7l-2.9.4v-8c0-5.9-.4-8.2-1.3-8.3q-1.5 0 0-.6c1-.3 1.3-3.5 1.3-10.9V228zM114 740H91v-22l-11.2.2-11.3.3-.3 10.7L68 740H46v-22h22v-21H46v-22h22v-9.9c0-8-.3-10-1.6-10.5-.9-.3-5.8-.6-11-.6H46v-20h22v-22h23v22H80.1c-9 0-11 .3-11.5 1.6-.3.8-.6 5.3-.6 10v8.4h23v21H78.3c-5.2 0-7.8 0-9.1 1.3-1.4 1.4-1.3 4.2-1 9.9v1.8l.3 8.5 11.2.3 11.2.3.3 10.2.3 10.2 11.3.3 11.2.3zm205-431v21h-23v-21h-23v-18h23v-18h23v18h22v-18h23v18h-23v18Zm-182 21h-23v-21h23v-18h22v-2.7l.3-8.8.1-6-11.2-.3-11.2-.3V251h-23v22h23v18h-23v18H91v21h23v20h23ZM319 91V46h-23V23h-23v21.7l5.3.6c2.8.4 8 .7 11.4.7h6.2l.3 10.3c.2 5.6.2 15.7 0 22.5l-.3 12.2H273v23h23V91zm659.2-34 .3 11H956V46h-23V23h-11c-10.6 0-11 0-11.5 2.3-.4 1.3-.5 2.7-.4 3.3v8.6L910 45h-21.8l-.4-3c-.3-1.7-.3-6.7 0-11l.5-8H910V0h23v23h23l.2 11.3.3 11.2 10.7.3 10.7.3ZM569 569v22.2l-8.7-.3-8.8-.3-.3 9.4c-.2 5.1 0 10 .2 10.7.4 1 2.6 1.3 8.8 1l8.3-.2.3-10.2.3-10.2 11.2-.3 11.2-.3.3-10.7.3-10.8H614v-10c0-5.4.3-10.5.6-11.4.5-1.3 2.5-1.6 11.5-1.6H637v9.7c0 5.3.3 9.4.6 9 .3-.3.3-9.6-.1-20.6l-.8-20.1h-21.5l-.6 3.1a89 89 0 0 0-.6 11v7.9h-22v23zM455 675h22.9l.3 9v2c.2 3.6.3 5.5-.6 6.3-1.1 1-3.6.5-9-.7l-2.6-.6c-8.5-1.8-14.6-3.8-12.2-4q1.2 0 1.2-6zh-22l-.2-4.7-.2-10.3-.1-5.5-11.2-.3-11.3-.3v-19.6l10.1-.6c5.6-.3 10.8-.3 11.6 0 1 .4 1.3 2.7 1 10.3 0 5.4 0 10 .3 10.2s5.3.2 11.3 0l10.7-.3v-8.7c0-4.8.4-9.3 1-10.1.6-1.1 3.3-1.5 11.2-1.5l10.3-.1.3 10.3.3 10.2h-10c-5.5 0-10.7.3-11.5.6-1.3.5-1.6 2.4-1.6 10.5Zm91-538v21.8l4.7.4c2.6.2 7.7.2 11.5 0l6.8-.4V137h23v22h-23v23h-23l-.2-11.2-.3-11.3-21.5-.6V137zm188.3 22.3c3.4.1 6.8.2 7.5 0s3.1-.3 5.3-.3h3.9v23h-23v-23h-22v23h-23v-11c0-10 .2-11 2-11.5 1.1-.4 3.4-.3 5.1 0s6 .4 9.5 0l6.4-.7V137h22v21.9ZM774 228l-.3 10.4-.3 10.5 2.9.5c1.6.3 6.1.6 10.1.6h1.3c4.4 0 6.7 0 7.9 1.1 1.3 1.3 1.3 4 1.3 9.5V273h22v-22h-21.8l-.4-9.7-.1-2.6c-.3-5.5-.4-8.2.8-9.5 1.2-1.2 3.7-1.2 8.4-1.2H819v-23h-22v23zm-46 318h-22v23h-23v22h-23v21l11.3-.2 11.2-.3.3-10.2.3-10.2 11.2-.3 11.2-.3.3-10.7.3-10.8H728zm0-156v-20h-22v20h-23v21h23v22h22v-22h-22v-21zm-523-60v-21h-23v21h-23v20h-22v20h22v-20h23v-20Zm751 649h2.8c1.5 0 4.1.9 5.9 2 3.1 1.9 3.2 1.9 7 0 7-3.7 7.3-3.4 7.3 9v11h22v-22h-11c-12.2 0-12.3 0-9.5-6.7 1.5-3.7 1.5-4.2-1.1-10.8-.4-1.1-.8-2.7-.8-3.5s-1.2-1.6-2.5-1.8c-1.8-.3-3-1.8-5-6.3-1.4-3.2-2.8-5.9-3.1-5.9s-1.7 2.7-3.2 6c-2.4 5.5-3 6-5.7 6s-3.1.3-3.1 3c0 2.9-.5 3.4-6 5.8-3.3 1.5-6 3-6 3.2s2.7 1.7 6 3.2c5.1 2.2 6 3 6 5.2zM341.2 468l.3 8H332v-3.5c0-2 .4-3.5 1-3.5s.7-.7.3-1.6c-.8-2 2.8-15 3.7-13.4.4.7 1.6 1 2.6.8 2.2-.4 2.7-3.6 1.4-8.8-.8-2.7-.5-4.4 1.3-8.4l2.3-5 9.7.3 9.7.3V455h22.9l.6 21H364v-21h-11c-10.9 0-11 0-11.6 2.5-.3 1.4-.5 6-.3 10.5M387 182h23v23h-23zh-23v-22.5l23-.1Zm361.4 842H706v-23h22v-21.8l10.3-.4c5.6-.3 10.8-.3 11.5 0 .9.3 1.2 3.5 1.2 11.3v10.8l-11.2.3-11.3.3v22l11.3.3zM569 933h-23v-22h23zh23v23h-23ZM0 182v-45h23v45zm364-91V46h-23l.1 9.8v10.5q0 .7 1.1.7 1.5 0 0 1.2-1.2 1.4-1.2 12V91Zm637-68v22h-22V23zV0h23v23Zm-68 182v23h-22v22h22v-22h23v-23ZM23 68h23v23h22l.2-11.2.2-11.3-22.4-.6V46H23Zm159 0V46h-23.1l.1-10.2V24.3c0-1-3-1.3-11-1.3h-11v22l4.8.2 10.7.3h6l.3 11.3.3 11.2zm501 387h23v-7.2c0-4-.3-9-.6-11l-.7-3.8H683v-21.9l-11.5-.3-11.6-.3.3 11 .3 11 22.5.6zm250.7 500.4c.4.4 5.5.5 11.3.4l10.5-.3.3-11.2.3-11.3h10.8c6.2 0 11-.4 11.3-1 .1-.5.2-5.5 0-11l-.3-10H956v22h-23v10.8c0 6 .3 11.2.7 11.6M706 740h22v9.3c0 5 .4 9.8.8 10.5s4.7 1.4 11.5 1.9l10.7.6V783h-23v-21h-22ZM478 569h-23l.2 10.8.3 10.7 11.3.3 11.2.3V612h23v-5.2c0-3-.3-7.7-.6-10.5l-.7-5.3H478zm114 257h23v21h22v-21h-21.7l-.7-4.6c-.3-2.6-.6-7.5-.6-11V804h-22zm-455-43v-12.7c0-4.4 0-6.6 1-7.8 1.3-1.2 3.8-1.2 9-1.1h2.5l9 .1.6 21.5h22.8l.3 10.8.3 10.7-22.5-.6-.1-3.5a85 85 0 0 1-.8-11.4l-.1-6zm0 64v-43h22v43Zm569-150h-9c-8.6 0-8.9 0-11.4 3-2.3 2.8-2.6 4-2.6 10.6v7.4h-8.9c-7.4 0-9.3.3-11.5 2-2.5 2-2.6 2.6-2.6 11.1v9l11.3-.3 11.2-.3.3-10.7.3-10.8h11c6 0 11-.3 11-.7l.8-16zM592 455v-22h-23v22h-18v23h18v-23zm136 136h-22v21h21.7l.7 3.8c.3 2 .6 6.7.6 10.5 0 6.3.2 6.7 2.3 6.8l8.5.4 6.2.4V612h-18zm-22 365h-23v23h-3c-4.4 0-6.5 2.3-4.9 5.2.7 1.2 1.8 2.9 2.6 3.6s1.3 2.2 1.3 3.2.4 2.1.8 2.4c1 .6 3.2-8 3.2-12 0-2.4 0-2.4 11-2.4h10.7l.6-5.2c.4-3 .7-8.1.7-11.5zM563.8 500.6h18.4l15.8.1-6 .6V524h-23v-22.7l-4.6-.7zM569 956v23h-23v-23zm-136 0v-23h-23v23zm-228-23h23v23h-23zm-91 0h23v23h-23zm91-387v23h-23v-23Zm-23-318v-23h-23v23Zm296-114v23h-23v-23zm0 0V91h23v23zm91 0v23h-23v-23Zm0 0V91h23v23zM23 91v23h23V91Zm341 0v23h23V91zm0-91h23v23h-23zm501 0h23v23h-23zm-46 979h23v-23h-23zm-68 45v-23h23v23Zm46-933h-23V68h23zM660 455v23h23v-23ZM455.7 955.3c.3.4 5.5.7 11.5.7H478v-23h-23v10.8c0 6 .3 11.2.7 11.5M1024 68v23h-22.6l-.4-23zM819 23v23h6.9c3.7 0 9-.3 11.5-.6l4.6-.7V23zm103 45a134 134 0 0 0-12.7.3c.4-.3.7-5.3.7-11.3V46.2l10.3-.4a91 91 0 0 1 11.5 0c.9.3 1.2 3.5 1.2 11.3V68ZM728 455h-21.9l-.3 11.5-.3 11.5H728zm-91 524v-23h-21.7l-.5 7.3c-.2 4-.2 9.1 0 11.5l.4 4.2zm296-774v-23h-22l-.1 2.5-.1 4.5v9l.2 7zM205 933h-23v-22h23zm-91 0H91v-22h23zm23-86v22h-23v-22zm0-107v22h-23v-22zm-23-43h23v-22h-23Zm91-128h23v22h-23zm205 235v22h23v-22Zm68-554v-22h23v22zm341 274v22h23v-22Zm23 280v22h23v-22zm-91 0v22h23v-22zm205-170h-23v-22h23zM546 826h23v-22h-23zM46 114v23h22v-23zM956 0h22v23h-22zm23 228h22v-23h-22zm-23 751h-23v22h23zm-68-46v23h22v-23zm0 0v-22h-23v22Zm-182 23h22v-23h-22zM273 228v-23h-22v23Zm0 0v22h23v-22zm273 0v22h23v-22Zm46 227v23h22v-23zm387 0v23h22v-23Zm0 478v23h22v-23Zm0-806.2.1 10.2h21.9v-23h-11c-8.1 0-11 .3-11 1.3zM956 228v21.8l6 .4c3.4.2 8.6.2 11.5 0l5.3-.4-.1-3.6.1-11 .2-7.2Zm-727.3-23.7c.3.4 5.3.7 11 .7H250v-23h-22v10.8c0 6 .3 11.2.7 11.5M341 46V23h-22v21.7l3.8.7c2 .3 7 .6 11 .6zm-290.7-.7c9 .8 17.6.7 17.9-.3.1-.5.2-5.7 0-11.5L67.9 23H46v21.9ZM819 228v4.9c0 2.6.3 7.6.6 11l.7 6.1H842v-22zM700.7 634h5.3v-22h-23v20.7l6.2.7c3.3.3 8.5.6 11.5.6m-86-45.2c.5 2.1 1 2.2 11.4 2.2H637v-22h-21.7l-.7 3.8c-.8 4.7-.8 13 0 16M616 45.1c2.2.7 11.7.9 16.2.3l4.8-.7V23h-22v11c0 6.3.4 11 1 11.2M683 228v22h10.8c6 0 11-.2 11.3-.4.2-.2.3-5.2 0-11L705 228zM46 433v-22h10.8c6 0 11 .2 11.3.4.2.2.3 5.2 0 11L68 433zm254.8 436-4.8.2V890h23v-21l-6.7-.1zM159 228h-22v22h22zm751 205v-22h-22v22ZM341 228h-22v22h22zm638 447v22h22v-22Zm-46 258v-22h-22v22ZM23 869v21h23v-21zm114-65h-23v-21h23Zm68-107h23v21h-23zm0-85h-23v-21h23Zm205 192v-21h-23v21zm-23-21v-21h-23v21zm501-393h-23v21h23Zm-46 350h-23v21h23zm0 43h23v-21h-23zm0 0h-23v21h23Zm-136-21v21h-23v-21zm227-453h23v21h-23zm23 474v21h-23v-21zm-364 64v-21h-23v21ZM478 411v-21h23v21zm0 458v21h23v-21Zm-23-436v-22h-11c-8.1 0-11 .3-11 1.3v11l.1 9.7zm228-124v21h21.7l.7-6.1c.3-3.4.6-8.1.6-10.5V309ZM69 887.2v2.8h22v-21H67.7l.6 7.7c.4 4.2.7 8.9.7 10.4M137 675h21.8l.5-3.2c.3-1.8.4-4.6.3-6.3l-.4-7.2-.2-4.3h-22zm591 129h-21.8l-.4-7.1a90 90 0 0 1 0-10.5l.4-3.4H728Zm-295 22v21h22v-21zm113 0h-22v21h22zm46-214h22v-21h-22zm387-21v21h22v-21zm-68 278v21h22v-21ZM709 654.7c4.5 1.4 8.7 1.6 9.5.3.3-.5 2.6-1 5-1h4.5v-20h-22l-.2 9.8-.3 9.7ZM296 350h-23v-20h23Zm569 561v-20h-23v20zm-91 0v-20h-23v20zM478 569h23v-20h-23Zm455 342h23v-20h-23zM626.4 370.3c6 .1 11 .4 11.1.5l-.3-10.3-.3-10.5h-21.6l-.6 7.8-.1 1c-.5 5.5-.7 8.3.6 9.7 1.4 1.6 4.5 1.6 11.2 1.8M592 370v-20h-9.5c-13.4 0-13.5 0-13.5 11v9zm91-20v20h-21.7l-.6-6.7c-.4-3.8-.7-8.3-.7-10V350ZM501 675h21.8l.4-5.7a83 83 0 0 0 0-10l-.3-4-9-.7-1-.1c-6.1-.5-9.1-.8-10.6.6-1.3 1.3-1.3 4-1.3 9zm409.7-305.7c.2.4 5.3.7 11.4.7H933v-20h-21.8l-.4 9.3a64 64 0 0 0-.1 10M888 911h22v-20h-22zM728 350v-20h-22v20zm251-20v20h22v-20Zm0 304v20h22v-20Zm0 257v20h22v-20ZM501 569v22h19v-13.4a70 70 0 0 0-.8-14c-1.2-.7-2.9.7-3.6 3.1-.7 2.1-1.3 2.3-7.7 2.3zm276 43v-21h20v21ZM319 291h-23v18h23Zm250 278v-23h-18v23zm168-136.2-9 .3V455h18v-22.5ZM728 546h18v-22.5l-9 .3-9 .3zM569 675v-14.7l-8.7-1.7-11.5-2.2-2.8-.6V675Zm208.3-.6q.6 1.1 9.3.7l9-.5s.4-4.5.6-9.9v-1.6c.3-4.5.4-6.8-.7-8-1.2-1.1-3.7-1-8.7-.9H785l-7.5.3-.3 9.4c-.1 5.2 0 10 .1 10.5M728 591h9c4.9 0 9-.3 9.3-.7s.2-5.4 0-11l-.5-10.3H729l-.1 2.8-.3 5.7-.4 8.3zM551.7 432.4c.4.4 4.3.6 8.8.4l8-.3.3-10.7.3-10.8H551v10.3c0 5.7.3 10.7.7 11M728 330h18v-21h-18zM454.8 783h-21.7l-.6-19.6 8 1.9L452 768l3.5 1zM728 390.1l.1 8.9c0 5 .2 9.6.3 10.3q-.1 1.2 8.9 1.5l8.7.3v-21.6l-9 .3zm0-20.1h18v-20h-18zm-91-97h-22v18h4.5c2.9 0 7-1 11-3l6.5-2.9zm-45.8 25.3c-.2 3.7 0 6.7.5 6.7s5.9-2.3 12-5.1c15.7-7.2 15-9.2-2.7-8.7l-9.5.3Zm86.8-31.1c3.7 1.2 4 .6 4-7.9V251h-6c-6.1 0-11 1.5-11 3.4 0 1.6 3.2 5 5.4 6 1 .3 1.6 1 1.3 1.2-.7.7 4 4.9 6.3 5.6M387.2 641.5c.2 4.1 0 7.5-.4 7.5-1 0-13.7-12-14.8-14-.7-1.4-.4-1.6 2-1.2q2.7.4 2.4 1.3c-.3 1 .9.9 2.5.9s3.1-.4 3.1-1 1-1 2.4-1c2.3 0 2.5.3 2.8 7.5m-14.8-249.6c-.8 1.1-2 2.1-2.7 2.1s3.5-4.7 9.3-10.5c10-10 14.6-13.6 10-7.9-1.4 2-2 4.1-2 8 0 4.7-.2 5.4-2 5.4q-1.8 0-2-.9t-2-1.4c-2-.5-6.4 2-8.6 5.2M226.8 108.3l.2 5.7h-5.7c-8.6-.2-9.2-.9-3.7-3.9 3.7-2 5-3.4 5.8-6.1l1-3.5.6 4.5.6 4.5.6-3.5c.4-2.8.5-2.3.6 2.3M403 369.2c-5.2 1-8.2 1-7.5-.2.4-.6 4-3.2 8-6 6-4.1 7-4.5 6.2-2.5q-1.2 2-2 1.9c-.7-.5-.8 0-1 3.9-.1 1.7-1 2.3-3.7 2.9m-7.4-92.1a61 61 0 0 0-8.3 4q-1.4 1.4-1-.2l1.1-4.1c.6-2.8.8-2.8 7.9-2.8h7.2Zm-31.8 133.7-7.6.7 3.7-5.2c2-3 3.8-5.3 4.1-5.3s.3 2.2.2 5Zm44.3 254c6 4.6 3.5 4-3.7-1-7-4.9-14.6-11.3-12.4-10.4l3.3 1.2q1.6.6 1.7 1.5.2.8 2 .9 2.4.3 3.4 2.2c.9 1.2 3.5 3.7 5.7 5.5M298.6 675h-2.4l-.3-5c-.4-4.6-.3-4.8 1.1-3.1l5 6.1q3.7 4.6 1.3 3.1c-1.2-.6-3.3-1.1-4.7-1.1M296 350.2l7.7-.7-3.5 4.5-4 5q-.3.3-.2-1c.1-.8.2-3 .1-4.8Zm131.8 326.4q1.1 1.3.5 1.4c-1.2-.1-6.3-3-6.3-3.6 0-.9 4.3.8 5.8 2.2M677 303.4c-5.8 1.8-14.5 4.8-16 5.6q-.6.1-1 1.8l.3-1.6c1-.7 10.4-4 16.7-5.8m64.5 357.5-1.5-.3zM728 390.1v-.1z"/><path fill="#dedfdc" d="m978.2 57-.3-11-10.7-.2-10.7-.3V45H978V0h1v22h22v1h.5l.3 11 .3 11h21.9v14.6c0-7.8-.1-8.4-2.2-9-3.7-1-9.3-.7-10.5.5q-1.2 1.4-2.8-.5c-2.3-2.3-3-2-4.2 1.6l-1.1 3.3-.1-2.8q-.1-2.6-1.1-2.2c-1 .4-1-.5-1-2V46h-22v21l11.8.2 22.5.6 10.7.2h-23l.4 23h11.7c-6 0-11.2.3-11.4.8l-.1 4.9-.2-2-.7-3.7H990c-9.7 0-11 .2-11 1.8V99l-.4-3.7-.6-4.3h-22v20.4l-.2-8.7-.3-11.2-22.5-.6-22.5.6-.3 11.3-.2 8.6V91h-22v45h33.5c5.3 0 8.2 0 9.7 1H888v45h11c-8.2 0-11 .3-11.3 1.4l-.3 4.8-.7-6.2h.3v-45h-19.7l3-.3c2.8-.4 7.8-.7 11-.7h5.7V91h-40.2c3.6 0 5.1-.5 6.2-2 .8-1.1 2-2 2.7-2s1.3-.4 1.3-1 .5-1 1-1 1 .8 1 1.9c0 2.5 3.5 3.1 17.1 3.1H887l.2-7.2.3-10.8v-3.5l-11.1-.3c-9.6-.2-11.4 0-13 1.5q-1.8 1.9-2.1.5-.2-1.2-8.9-1.2h-1.3c-3.5 0-5.5 0-6.6 1-1.6 1.3-1.5 4.5-1.7 12l-.3 8.5-23 1v22l-.3-11.2L819 91h.1V68h-42.6l6.9-.2 9.2-.3.6-3.5q.6-3.1.8-1.4c.2 3.8 2 4.4 13.8 4.4H819v1h23V56.3c0 5.7.3 10.7.7 11s5.2.7 10.9.7c8.4 0 10.3-.3 10.8-1.6.3-.9.6-5.8.6-11V68h22V57c0-9-.3-11-1.5-11.1a109 109 0 0 0-12-.1c6.8-.2 12.7-.7 13-1 .2-.2.7-5.2 1.1-11l.3-5.2-.1 2.4c-.3 4.3-.3 9.3 0 11l.4 3H910l.1-7.8V37c0 3.1.2 5.8.5 6.5.5 1.3 2.2 1.6 10 1.6a63 63 0 0 1 11.2.8 91 91 0 0 0-11.5 0l-10.3.4V46h-22v22h10.7c5.9 0 8.7 0 10-1.4q1-.9 1.1-2.8-.1 4-.6 4.4t.6.1c.8-.1 6.3-.3 12.3-.3h8.3l-8.7.2-11.2.3-.3 21.5H933V57.1c0 8.5.3 9.8 1.8 10.2 1 .3 6 .4 11.2.4l9.5-.2.3-10.8.2-8.1V68h10.1c-5.5 0-10 .2-10.2.4s-.3 5.2 0 11L956 90h22V68h.5ZM182 137v-23h11.5q11.3 0 11.5-1t1-.5c.6.4 1-1.7 1-5.5s-.4-5.9-1-5.5q-1 .4-1-5v-5.8l11 .8 11 .7V46h-25.8c-2.2 0-7.3-.3-11.5-.6l-4.2-.4H205l11.3.2 11.2.3.3 11.3.3 11.2h-.1v22.4c0 19.5.2 22.5 1.6 23 .9.3 6 .6 11.5.6H228v22h10.3q10.2 0 11.5 1.2l.2.3-10.7-.3-11.3-.3V155l-.5-7-.7-11ZM752.4 22.3c.6.3 5.2.6 10.4.5L751 23v23h-23v5.2q0-3.5-1.1-4.6t-4.6-1l2-.2 3.7-.7V23h-19.4l8.1-.2 10.8-.3.3-11.2L728 0h22.3l.4 10.8c.3 6.4.9 11 1.6 11.5M182 847l-4.2-.2-11.3-.2-7-.1-.3 11.3-.2 8.6v-59.8l.2 8.1.3 10.8h22l.3-10.7.2-10.3h.5v-1.7l2.6.6c1.7.3 7 .6 11.5.6h8.4v22h-23v20h8.4c4.6 0 9.8.3 11.5.6l1.8.4zM524 23v-.2l21.8-.5c14.1-.4 22-1 22.4-1.7s.8-5.5.8-10.8V0v44.7l4.6.7 2.4.2c-3 0-5.3 0-5.7.2-1 .3-1.3 3.5-1.3 11.3v4.5c0-3.5-.3-8.4-.6-11l-.7-4.6H557c-8 0-11 .3-11 1.3q0 1.5-.6 0c-.3-1-3.6-1.3-11.2-1.3h-10.7v.6l-3-.8c-1.6-.5-5-.8-7.4-.7h-1.3l5.4-.1h5.9V23.5h.5l.3 10.8.3 10.7H546V23ZM136 91h1v68h11c-10.7 0-11 0-11 2.3v16.1l-.2-5.8c-.2-5.8-.7-10.8-1.1-11.3s-5.5-1-11.3-1.1l-10.4-.4v11.5l-.2-10c-.4-12.4-.2-22.3.3-22.9q1-1.1 9.2-.7h1.6c5.6.3 8.4.5 9.8-.8 1.3-1.3 1.3-4 1.3-9.3zm547 137h-23v10.4c0 7.4-.4 10.6-1.2 11q-1.5.5 0 .5.4 0 .7 1.1H637v-24h35.7c5 0 7.6 0 8.9-1.2 1.4-1.4 1.4-4.2 1.4-10V205Zm91-160v43.4l-.2-8.6-.3-11.3-19.9-.5H773V68h-21.1l.1-.2h-1V46l10.8-.7c5.9-.3 11-.9 11.2-1.1s.7-5.1.8-10.9l.2-6.1ZM23 869l-.2-10.2c-.3-13.7.2-22 1.3-23.4.5-.6.6-2.5.3-4.2q-1.1-5.4 6.7-5h8.6l5.3-.2v-22h-6.6q4.8.2 6.2-1.3c1.4-1.3 1.4-4 1.4-9.6V783v86-7.2c0-4-.3-9-.6-11l-.7-3.8H23Zm978-846h-22v22h22zm-796 91v22h22v-22Zm45.3-15.7c-.5-4.3-1-7.1-1.6-7.5q-1.2-.8.4-.8c2.8 0 4-14.4 1.7-19.5-1.1-2.5-1.3-2.5-12-2.5H250V46.3l-6.7-.6c-3.8-.4-9-.7-11.7-.7h-.9H250V23v4.3c0 2.3.3 7.2.6 11l.7 6.7h7c4 0 8.9.3 11 .6l2.1.4H251v21h22v15.7c0-10.8-.7-11.8-9-12.4-9-.6-9.7.1-8.2 7.4a61 61 0 0 1 1.2 8c0 3.4 3.7 5.3 10.2 5.3H250ZM678 267.2c-2.3-.7-7-4.9-6.3-5.6q.3-.6-1.3-1.3c-2.2-.8-5.3-4.3-5.4-5.9 0-1.9 4.9-3.4 11-3.4h6v8.3c0 8.5-.3 9-4 7.9m5 82.8h-23v3.3c0 1.7.3 6.2.6 10l.7 6.7H660v20l-.2-9.2-.3-40.1v-11.3c0-10.2.2-16 .5-18.6q.4-1.7 1-1.8a175 175 0 0 1 13.8-5q-1.9 1.1-.8 3c.8 1.5 2.1 2 5 2h-6.4q-10.4 0-11.2 1.2-.7 1 .6.3 1.5-1 .5 1.6a61 61 0 0 0-1.2 10.1l-.4 7.8h-.9v10.7c0 4.3 0 6.6 1.1 7.8 1.4 1.5 4.4 1.5 10.9 1.5h1.8Zm-47.7 411-2 .4c-2.1.3-7 .6-11 .6H615l-.2 5.5c0 3-.2 7-.3 8.7l-.1 1.7-.3-8.1-.1-7.8h-22v33c0-4.8-.3-9.5-.6-10.4-.5-1.3-2.5-1.6-11.5-1.6H591v-10.8q0-10.6 1.2-12c.7-.7 3.3-1.2 5.8-1.2 3.3 0 4 .3 3 1q-1.7 1 6 1c4.1-.1 6.9-.4 6.1-.7q-1.2-.5-.4-1.2c.6-.3 1.2-2.7 1.5-5.3l.3-2.8v9.5l11.3.3ZM408 664.7a36 36 0 0 1-5.7-5.5c-.8-1.2-2.4-2.2-3.5-2.2s-1.9-.4-1.9-.9q-.2-.8-1.7-1.5l-3-1 7.8.2 8.9.4v-3.4c0-1.8.3-6.3.6-10l.4-3.7v16.8l2.6.1H410v6.5q0 6.5 1.2 6.5 1 0 .5.6h-.3q-.4-.6-3.3-2.9m297.5 306.4-.2 2.6-.7 5.3H694c-11 0-11 0-11 2.4 0 4-2.3 12.6-3.2 12-.4-.3-.8-1.4-.8-2.4s-.6-2.5-1.3-3.2-2-2.4-2.6-3.6c-1.6-3 .5-5.2 4.8-5.2h3.1v-1h21.7l.7-4.6zM958.7 956h.4c2.8 0 3.3-.5 5.7-6 1.5-3.3 3-6 3.2-6s1.7 2.7 3.1 6c2 4.4 3.2 6 5 6.2 1.2.1 2.3.9 2.4 1.6-.2-1-2.5-1.4-11.3-1.6Zm-2.7 20.4c0-2.2-.9-3-6-5.2-3.3-1.5-6-3-6-3.2s2.7-1.7 6-3.2c5.5-2.4 6-3 6-5.7zM226.8 108.3c0-4.6-.2-5-.6-2.3l-.6 3.5-.6-4.5-.6-4.5-1 3.5c-.8 2.7-2.1 4-5.8 6.1-5.5 3-4.9 3.7 3.7 3.8l5.7.1Zm183.2 512V612v21h10.3c4.3 0 8.5.2 10.4.6-1.9-.2-6-.1-10.6.1l-9.8.6v-.3h-23.5l.4 7.5c-.3-7.2-.5-7.5-2.8-7.5-1.3 0-2.4.4-2.4 1s-1.4 1-3 1-2.9-.4-2.6-.9-.7-1-2.3-1.3c-2.5-.4-2.8-.2-2 1.2l-1.6-1.5 8.3-.3 8.2-.3v.1h12.6c5.1 0 7.7 0 9-1.3 1.4-1.3 1.4-4 1.4-9.6zm250.3-354.1 2.6-.4c3-.4 5.1 1.5 5.1 4.7q0 1.5 2.8 1.6c2.4 0 2.3.2-1.7 2l-2.2 1-1.2.3q1-1-2.5-1.6l-2.7-.3ZM403 369.2c2.8-.5 3.6-1.2 3.7-3 .2-3.9.3-4.3 1-3.8q.9.2 2-2c.7-1.6.2-1.6-3.4.8a37 37 0 0 1 5.3-3.2q.7 0-.4 1.2c-1.1 1.2-1.2 3.4-1.2 6v21.7l-.3-3.6c-.4-3.8-.7-8.3-.7-10V370h-7l-3.8-.1zM706 1024h-1v-23.2h-2.4 2.4V979h1ZM519.6 500c-.4 9.5-1 11.5-2.6 9-1.4-2.2-1.2-6.7.3-7.3.6-.3-1.6-.6-5-.6-5 0-6.2-.4-6.6-1.8-.3-1-.5 4.2-.6 11.5L505 524v-13.2c.1-7.3.4-12.7.7-12q.5 1.2 7.4 1.2Zm-184.4 68.2q.8 1 2.8.8h3v-10.3.7c0 4.6 0 7 1.2 8.3 1.1 1.1 3.3 1.3 7.5 1.3H341v4.6c0 3.7-.3 4.5-1.5 4q-.9-.4-.8.5l-.4-1.1zM637.4 674c.3.6 3 1 5.8.9q4.7 0 3.7-.4l1.5.2-4.3.2c-4.5.1-4.6.1-4.2 7.3.1 3.3-.2 3.8-2.7 4.3l-1.4.4c1-.6 1.1-2 1.1-6V675h-11.1q11 0 11.3-1.2.2-.7 2-.6-2 0-1.7.8m-294-239-1.2 2.6c-1.8 4-2 5.7-1.4 8.4q2 8-1.3 8.8c-1 .2-2.2-.1-2.6-.8q-.3-.4-.9.8l3.3-9.6c1.8-5.2 2.8-8.3 4-10.1m84.4 241.5q-1.4-1.2-3.5-2l2.5.1 4.9.5.6-9.8.2-6.8v1.4l.3 10.3.2 4.7h-.2l.4 2.4.5 2.3-5-1.8h-.2q0-.4-.7-1.3m116.2-345 1.7-1.4c.2-.4-4.9-.6-11.2-.4l-8.2.2 4-.2a47 47 0 0 0 13.2-2.4c.5 0 1.3-2 1.6-4.4l.6-4.5.2 5.3q0 5.5 1.3 4.6 1-.6.4.4-.3.4-3.6 2.8M387 384v5.9h-6.8c-4.5 0-6.2.2-7.3 1.1 2.4-2.8 6.2-4.9 8.2-4.4q1.7.6 1.9 1.4t2 .9c1.8 0 2-.7 2-5.4zm-137.7 95.1.7-4.7 1.3-9.5q.8-3.8-.3-1.5c-.7 1.5-.9.7-.8-3.3.1-4.4.5-5.3 1.8-5 1.2.4 2.1-1.7 4.5-10.9l-1.3 5.2a270 270 0 0 0-6 29.8M114 136v1H91v-1Zm405.8 319c-.3 7.5-1.1 9.1-2.8 6-.6-1.2-1-3-.7-4.1.5-1.7-.1-1.9-7.4-1.9Zm71.4-156.7.3-6.8 7.9-.2q-2.3 0-3.7.3c-3.7.7-3.7.7-3.7 5.5 0 3.7.4 4.9 1.7 5.2l2.5.6c.3 0 3.9-1.4 8.1-3.3l-.6.3c-6.1 2.8-11.6 5.1-12 5.1s-.7-3-.5-6.8M519.8 569H508c6.4 0 7-.2 7.7-2.2.7-2.5 2.4-4 3.6-3.2.3.2.5 2.3.6 5.4m-263.5 11.8-2.3-8.5q-1.1-4.4-2.5-3.6c-1.2.4-1.5-.3-1.5-3.2q0-3.7 1.2-3t.5-1.6l-1.6-9 1.4 7.6c1 5.1 3 14.1 4.8 21.3m486 116q6.3-.2 5.3-2.3c-.4-1.3.7-1.7 4.2-1.3q-.4 0-.6.3-.3.3-.2 1.1v.4c0 1.8-.4 2-8.6 1.8m-28.9-404.3 5.9-1.4a19 19 0 0 1 7-.5q.8.3 1.1 1.6l-4.3-.5c-2.6-.2-7.5.3-11 1l-6.2 1.5zM721 654h2.6c-2.5 0-4.8.5-5.1 1q-1 1.2-4.7.7.3 0 .2-.7c0-.6 3-1 7-1M46 175.8l-.2-6c-.2-6.8-.2-17 0-22.5l.2-6.2Zm182 8.8.5 19.1a88 88 0 0 1-.5-10.9Zm364.5 19.1a88 88 0 0 1-.5-10.9v-8.2l.2 8.7ZM206.3 846.5l10.4.3 8.7.2h-8.2c-5 0-9.3-.2-11-.5M612.5 205h-8.1c-5 0-9.4-.2-11-.5l10.5.3Zm-383.1-.5 18.1.5h-7.7c-4.7 0-8.9-.2-10.4-.5m-24.3 624 .5 17.2a74 74 0 0 1-.5-9.9Zm45.6-688.8q.3 3 .4 9v7.7l-.2-8.2Zm-22.6-95q-1.1-.3-.6-1.3c.3-.9.6-5.8.6-11Zm445 956.6h-3.8l-9.2-.3h-.2v-.3l12 .6zM364 618c0 3.3-.2 6-.5 6l.3-5.7.2-4.3Zm-27.7-458.6.5-.1 4.1-.5.3 11.3.3 11.4-.3-11-.3-11ZM728.5 290c.3.5 4.6.9 9.5.9h-.4c-5.2 0-9.7-.4-10-.9q-.2-.5 2.1-1.3-1.5.6-1.2 1.3m68-176.6-11.2.3c9-.2 10.8-.4 11.2-1.7ZM401.8 661.8c-2.8-1.9-5.6-4-7.5-5.6l-3.1-2.7h.5c.5 1 5.2 4.7 10 8.3m-82.7-503 6 .4h-6zm558.3.3h-6.5l-5.8-.1v-.2l6.3.2zm-262.6-3v-.2a43 43 0 0 1 0-15.2v-.8l-.3 2.7c-.3 3-.4 8 0 10.8ZM332.4 554.7l.2 2.1q0 1.6.4 3.6a14 14 0 0 1-.6-5.7M159 789.6l-.4-6.6h.3l.1 6zm810-539.3c.7-.2 3.2-.3 5.6-.3h1.6l-2.6.2zM910.2 31.6l-.1-3a11 11 0 0 1 .5-3.8c-.2 1.3-.4 3.9-.5 6.8M205 762v.3l-5.5-.6 1.8.1Zm683-562.3.3 5.3h-.3Zm-279-40.3a48 48 0 0 1-7.5.1h2.8ZM911.1 23.8c1-.8 3.3-.8 10.8-.8-6.4 0-9.7.3-10.8.8m90.8 84.6.2 5.6h-.2ZM228 783h6.5H213ZM586.7 46h5.3v.2Zm28.2 735.4c.7 1.1 2.3 1.5 5.7 1.6-4.7-.1-5.6-.5-5.7-1.6M743.2 286h1.3a62 62 0 0 0-8.6 1h.3c2.9-.5 5.5-1 7-1M341.4 551.4l.2-.8c.3-.7 1-1.1 3-1.4q-1.7.3-2.6 1.1zm483.8-392.3-6.2-.1v-.2Zm-91-91.1-6.2.2V68Zm62.7 30.1.1-7.1h.1Zm-68.4 924.7q.3.5 1.6.7h-1.6Zm-72.2-863.7 3.7-.3v.2Zm54-113.1-4.3.1-.1 5.2.1-5.3ZM182 787.3l-.1-4.3h.1Zm151.4-319.7q.3 1.3-.4 1.4c-.6 0-1 1.6-1 3.5 0-2 .4-3.5.9-3.5q.5-.1.5-1.4M160 802.4l-.4-5.9.3 4ZM355 612l6 9-2-3Zm238.3-452.2q-.6.3-.9 1.1l.3-1zM431.2 654.4h1.3v1.3l-.1-1zM250.9 110.6l.2 3.4h-.1v-3.2Zm91.6 477.5q2.4 5.4 2.5 4.1-.1 1.4-2.5-4.1M520 477.8v8.3Zm160.8-175.5 1.4-.3.2.3q-.4-.2-1.6 0m-178-257.2L501 45v-.1ZM524.2 91l-.3-15.2zm-20.6-68H501ZM956 25.6V23ZM249.5 549q-.3-1.6-.8-2.2.5.4.7 1.5zM182 761l2 .1h-2Zm187.7-367q1 0 2.2-1.5-1.2 1.4-2.1 1.5zm17 255q-.3 0-1.4-1 1 1 1.4 1M259.6 432.5l-4.3.3-4.1.4 4.1-.4ZM933 143.2v4.8ZM350.4 432.8h3.9ZM683 114l-.3 11.2zl11.1-.3Zm91 0 11.1-.3zm-159 91-.3 11.1Zm227-46.2h-.5zm-183.2 115q.5.5.7 1.2-.2-.7-.7-1.1m-125.3 64.8 1.5-1-1.3.9ZM251 783v-.1Zm282.7 128h-.4 1z"/><path fill="#fbfbf9" d="M273 804h-22v-21h22v-20.7l-10.7-.6c-5.8-.4-10.7-.8-10.9-1l-.5-21.2-.4-21 23-.5-.6-21H251v-22h22v-9.9c0-8-.3-10-1.6-10.5-.8-.3-5.8-.6-11-.6H251v-20h-23v20h-23v-20h-23v20h11.2c6.3 0 9.3 0 10.6 1.5 1.2 1.2 1.2 3.5 1.2 7.7V675h23v-11.4c0-4.6 0-7 1.2-8.1 1.3-1.3 4-1.2 10-.8h1.7l9.1.6V675h-22v22h22v5.3c0 2.8.3 7.6.6 10.5l.7 5.2H228l-.6 21.5h-22l-.3-10.7-.3-10.7-11.2-.3-11.2-.3-.3-10.2-.3-10.3H159v21h23v22h23v22h45.7v3.8l.1 10.5.2 6.6-11.2.1H205v21h-8.4c-4.6 0-9.8-.3-11.5-.6l-2.6-.6-.3-9-.2-6.5V783h-23l-.5-21.5h-9l-2.5-.1c-5.2 0-7.7-.1-9 1.1-1 1.2-1 3.4-1 7.8V783h21.7l.4 6.5.5 7 .4 5.9v1.5l22 .6-.2 10.3-.3 10.7h-22l-.3-10.7-.2-8.2V804h-22v43h22v22h23v21h-23v-10.5c0-7.7-.3-10.5-1.2-10.5l-8.5-.6a44 44 0 0 0-9.8 0c-2.5.6-2.5.8-2.5 11.1V890h-23v-21h-5.3c-3 0-8.2-.3-11.5-.6l-6.2-.7V847H67.9l.1 9.8v11c0 .9-2.9 1.2-11 1.2H46v21H23v-21H0v-43h23v-22H0v-21h23v-10.5c0-7.7-.3-10.5-1.2-10.6H10.3l-10.3.3V740h23v-22H0v-21h23v-22H0v-21h23v-20h23v-22H23l-.2 10.8-.3 10.7-11.2.3L0 634v-22h23v-21H0v-22h23v-23H0v-22h23v22h23v-10.9c0-9-.3-11-1.6-11.5-.8-.3-6-.6-11.5-.6H23v-22h23v-23H23l-.5 22.5-22.5.6V478h23v-23H0v-22h23v-22h23v-21h22v21h23v-21l-22.5-.5-.3-9.7-.3-9.8H46.1l-.6 19.5h-22l-.3-9.7-.3-9.8H0v-20h23v-20H0v-21h23v-18H0v-18h23v-10.9c0-7.8.4-11 1.3-11.3a91 91 0 0 1 11.5 0l10.2.4V273h22v18H46v18h22l.5-17.5 22.5-.6v-17.8l-22.5-.6-.2-10.7-.1-10.8 8.6-.1a133 133 0 0 0 12.5-.8c1.5 0 1.7-1.3 1.7-11v-11l-11.2-.3c-8.1-.2-11.3-.7-11.4-1.6L68 215l-.1-10H46v23h22v22H46v-22H36c-5.4 0-10.6-.3-11.4-.6-1.3-.5-1.6-2.5-1.6-11.5V205H0v-23h23v-45H0v-23h23V91H0V68h23V46H0V23h23v23h23v22l22.4.5-.2 11.3L68 91H46v23h22v23H46v-23H23v23h23v4.1l-.2 6.2c-.2 5.6-.2 15.7 0 22.4l.2 6.1v6.2H23v23h23v-23h22v23h23v23h23v-23l-11.2-.2-11.3-.3-.6-22.5H80c-9.5 0-11-.2-11.4-1.7a444 444 0 0 1 0-41.6c.5-1.5 2-1.7 11.5-1.7H91v45h23v23h23v-23h-22.7l-.3-11.7v-11.5l10.4.4c5.8.2 10.8.7 11.3 1.1s1 5.5 1.1 11.3l.3 5.8v4.6H159v23h23v23h23v-23l-11.2-.2-11.3-.3-.3-11.2-.3-11.2-11.2-.3-11.2-.3-.3-11.2-.3-11.3H137v-45h22l.2 10.8.6 28.4.2 5.7 21.5.6.3 11.3.3 11.2H205v-10.9c0-9-.3-11-1.6-11.5-.9-.3-6-.6-11.5-.6H182v-22h23v22h10c5.4 0 10.5.3 11.4.6 1.3.5 1.6 2.5 1.6 11.5V182h22v23h-2.6l-8.2-.2-10-.3q-.5 0-.5-.2-.2 0-.2-.6l-.3-10.4-.2-8.7V182h-23v23h23v23h22v22h-22v-22h-23v22h-23v23h23v-21.9l10.3-.3a99 99 0 0 1 11.5 0c.9.3 1.2 3.4 1.2 11.3V273h22v7.4c0 4.1.3 8.2.6 9 .5 1.4-.8 1.6-11 1.6H228v-18h-23v18l22.5.5.3 8.8.3 8.7H250v21h-22v20h21.8l.7 3c.7 3 .5 13.6-.3 15.8-.3.8-3.5 1.2-11.3 1.2h-10.8l-.6 19.5h-22l-.6-19.5H182v20h23v21h23v-21l22.5.5v3l-.3 10.3-.2 7.2h-22v22h23v-22.1l8 .2 8 .2 1.2-2.4-1 2.1c-2.8 6.2-7.5 21.2-11.2 35.6l.5-2.3.1-.2 3-11.6-4.3.3-4.1.4h-.1l-.3 10.5-.3 10.8-22.5.6V478h10.5q8.8 0 10.3.8.3.2.3.4t.2 0q0 .4.2-.2a261 261 0 0 0 2 80.5l-1.4-7.6-.6-3-.1-.7q-.1-1-.7-1.5-.5-.8-2-.6h-10.4l-8.3-.1v23l11.3.2 11.2.3.6 21.5H228v21h22v5.7c0 3.2.3 8.2.6 11l.7 5.3H273v20h4.3c2.3.1 6 .3 8 .6l4 .5-2.2-3.3-2-3.2c5.3 8.3 11.6 17.4 17.8 25.7l-1-1.3-4.9-6.1c-1.4-1.7-1.5-1.5-1.2 3.1l.4 5h2.4c1.4 0 3.5.5 4.7 1.1q1.8 1.1.2-1.1c6.7 8.9 13.2 16.7 18 21.3l2.3 2.3c-4.3-3.3-4.9-1-4.6 9.1l.3 9.8 22 1 .1 9v2.4c.2 5.2.2 7.7-1 9-1.2 1-3.3 1.1-7.5 1.1H319v22h22v-22h23v21l-11.2.2-11.3.3-.3 10.7-.3 10.8H319v21h22v-21h23v-21h23v21h23v-21h7c3.9 0 7-.3 7-.8 0-.3-1.7-1.1-4.2-2a67 67 0 0 0 13.8 4.5l-1.1-.3.6 19.6h21.7l.4-7 .3-6.7a113 113 0 0 0 22.8 3.1v.4c.4.5.4 3 0 5.6l-.6 4.6H455v21h23v-21h22.8l.4-4.4.3-4.1c7.8.6 15.5.4 15.5-.5 0-.6 2.8-1 6.3-1l6.4-.3-3.2.3c-5.5.4-8.3.8-6.2.8l3.7.2v9h21.8l.7-12a123 123 0 0 0 23.4-5.2q-.9 1.2-.9 8.7v8.5h10.9c9 0 11 .3 11.5 1.6.3.9.6 5.6.6 10.5v8.9h22v6.4c0 3.5.3 8.4.6 11l.7 4.6H637v21h46v-21l-22.7-.2-22.8-.3-.3-10.7-.3-10.8H615v-14.2l.1-6.8H592v-21h22l.1 7.8a163 163 0 0 0 .8 11.6c.1 1 1 1.5 5.7 1.6H637v-21h46v-22h23v-22h22v22h23v-22l-11.2-.2-11.3-.3-.2-7-.2-10.2-.1-3.3h-22l-.1 4.3-.8 16c0 .4-5 .7-11 .7h-11l-.3 10.8-.3 10.7-11.2.3-11.3.3v-9c0-8.5.1-9 2.6-11 2.3-1.8 4-2.1 11.5-2.1h8.9v-7.4c0-6.6.3-7.8 2.6-10.5 2.5-3 2.8-3.1 11.5-3.1h8.9v-6c0-3.3.1-6 .3-6a318 318 0 0 1 20 3.7c2.2.6 2.2 1.3 2.2 4v3.8l7.5.3q3.9.1 6.4 0c8.2.2 8.6 0 8.6-1.8v-.4q0-.8.2-1.1 0-.2.6-.3 3 .4 9.2 1.7l8.5 1.9-18.5.2v21h23v-11.4c0-4.5 0-6.8 1.2-8.1 1.3-1.4 4-1.5 9.9-1.5H797v-22h22l.5-20.5 11.3-.3 11.2-.3v-19.8l-9.7-.3h-2.7c-5.7-.3-8.4-.4-9.6.9-1 1.1-1 3.2-1 7.3v12h-22v-20h22v-22h23v-21l-11.2-.2-11.3-.3-.3-10.7-.3-10.8H797v-23h22v-22h-5.7c-3.2 0-8.2-.3-11-.6l-5.3-.7v-21.6l-9.7-.3-9.8-.3-.3-11.2-.2-6.7V478h20v-23h-20v-37.5V433h20v-22h22v-21h-22l-.2 3.3-.2 10.2-.1 7h-19l-.3-10.2-.2-6.6V390h20v-20h-20v-20h20v-20h-20v-21h20v-18h22v18h23v-18l-11.2-.2-11.3-.3v-8.8c-.1-4.2-.1-6.4 1-7.5 1-1.2 3.5-1.2 8.4-1.2H842v-22h23v22h23v-21.8l9.8-.4a91 91 0 0 1 11 0c.9.3 1.2 3.5 1.2 11.3V273h-22v18h22v18h23v-18l-11.2-.2c-6.7-.2-9.9-.1-11.1-1.7-1.1-1.3-.9-3.7-.4-8.5l.2-1.3.7-6.3H933v-13.3c0-4.5 0-7 1.1-8 1.3-1.4 4-1.3 9.5-1l2.7.1 9.7.4V273h23v-22h6.3c9.3-.2 16.2-1.3 16.3-2.8l.3-10.7.1-9.5h22v22h-23v23h-21.7l-.7 9-.8 9H956v18h21.7l.5 5.3a77 77 0 0 1-.1 15c0 .4-5 .7-11.1.7h-11v20l22.5.5.3 9.8.3 9.7h21.9v20h-22v-20h-23v20l22.5.5.6 20.5h21.9v22h-22l-.2 8.3-.2 10.7c-.1 2.5-.1 2.5-11.3 2.8l-11.3.3V478h22v11.5c0 6 0 8.9 1.4 10.3 1.4 1.2 4 1.2 8.8 1.2h2c8 0 10.8-.3 10.9-1.2v-7c-.2-3.1 0-7.7.4-10.2l.7-4.6h21.8v23h-23v22h-10.7c-5.8 0-8.6 0-10 1.4-1.4 1.5-1.4 4.4-1.5 10.5l-.3 10.6-11.2.3-11.3.3V569h23v-23h22v23h-22l-.1 6.8-.3 10.7-.1 4-11.3.3-11.2.3v20.8l11.2.3 11.2.3.2 9v2.3c.2 5.2.3 7.7-1 9-1.2 1.2-3.6 1.2-8.4 1.2H956v20h21.8l.6 3.2c.3 1.8.4 6.4.1 10.3l-.4 7-11 .3-11.1.3V697h11c10.3 0 11 .1 11.1 2 .2 2.5.2 4.4 0 12.5l-.1 6.6-10.7-.3-10.8-.3-.6-20.5H933v21h23l-.2 10.8-.3 10.7-11.2.3-11.3.3V762h23v-22h22.5v-21.5l11.3-.3 11.2-.3V740h23v21h-10c-5.4 0-10.5.3-11.4.6-1.3.5-1.6 2.4-1.6 11V783h-22v-21h22v-22h-12.3c-5.6 0-8.3 0-9.6 1.3s-1.2 3.6-1.1 8.1v2.1c0 4.4.1 8.6 0 9.3 0 .9-2.9 1.2-11 1.2h-11v21h22v21h-22v22h23v-22h22l.1-4a89 89 0 0 0 .8-11.5l.1-5.5h22v21h-23v22h-22v21h11c8.1 0 11-.3 11-1.2l.3-10.3.2-9 11.2-.3 11.3-.3V847h-23v21h-10c-7.1 0-10.2.4-11.3 1.4-1 1-1.3 3.8-1.2 11l.3 9.6H956v-21h23v-22h-23v10.4c0 7.4-.4 10.5-1.2 10.8s-6 .3-11.5 0l-10.3-.4V847h23v-21h-23l-.5 20.5-10.7.3-10.8.3V826h22v-22h-22l-.2-7.2-.2-10.3-.1-3 11.3-.3 11.2-.3V762h-22l-.2-8.2c0-4.6-.2-9.4-.3-10.8 0-2.5 0-2.5-11.3-2.8L888 740v-22l11.3.3 11.2.3-.1 10.8-.2 10.7H933v-22h-22v-21h22v-22h-11c-6 0-11-.3-11.2-.7-.2-.5-.2-5.2 0-10.5l.3-9.8h9.4c5.1 0 10 .3 11 .6 1.2.5 1.5 2.4 1.5 10.5v9.9h23v-21h-23v-20h-22v-22h22v-21h-23l.1 9.3v10.5c0 .9-3 1.2-11.1 1.2h-11v22h10.8c6 0 11 .2 11.3.4.2.2.3 4.7 0 10l-.2 9.6H888v-9.9c0-11.4-.2-11.6-8.7-10.5-3 .3-7.3.3-9.8 0l-4.5-.7v-21h-23v22h23v20h10.3c5.6 0 10.8.4 11.5.9q1.3 1 1.2 5.2V675h22v22h-21.8l-.6 7.8c-.3 4.2-.4 8.8-.3 10.2l.2 2.5h-22l-.6-20.5H842v21h23v22h23v22h22v21h-22v21h22v22h-22v21h22v22h-22v21h-23v-21h-23v21h-23v-21h23v-22h-23l-.2 10.8-.3 10.7-10.3.1c-6.1 0-10.7.5-11 1.2-.4.5-.7 5.3-.7 10.6v9.6H774v-20.8l-7.5-.7c-4.1-.4-9.3-.4-11.5 0l-4 .7V890h-23v-10.4c0-7.8-.3-10.5-1.4-11a100 100 0 0 0-19.9.4c-.3.4-1.3 12.8-1.7 20.8 0 0-5 .2-11 .2h-11v-21l7.3-.2h11.5l4.2.2v-22h-23l-.2 10.8-.3 10.7-19 .2-22.7.3H637v21h-22v-10.5c0-7.6-.3-10.5-1.2-10.7-5.4-.6-8.2-.7-14.5-.2l-7.3.6V890h-23v-20.7l-10.5-.7a60 60 0 0 0-11.5 0c-.6.2-1 5.2-1 11V890h-22v-10.5c0-9.3-.2-10.5-1.7-10.7-2.8-.2-8.3-.5-15-.6l-6.3-.2v-21h-23v20.8l-2.8.5c-1.5.3-4.7.3-7 0s-6.1-.2-8.6.1l-4.6.7V890h-22v-10.4c0-10 0-10.4-2.2-10.9-1.9-.3-10.6-.3-19 .2-1.6 0-1.8 1.3-1.8 10.6V890h-23v-21h23v-22h-23v21h-10c-5.4 0-10.6.3-11.4.6-1.3.5-1.6 2.4-1.6 11V890h-23v-21l-7.7-.2a209 209 0 0 1-13-.7c-1 0-1.3-3-1.3-10.6V847h-23v22.2l-6.2-.7c-3.5-.4-8.6-.5-11.3-.3l-5 .3-.3 10.8-.3 10.7H251v-21h-23v-22h-2.6l-8.7-.2-10.4-.3q-.6 0-.6-.2-.2 0-.2-.6l-.3-9.5-.2-7.7V826h23v21l11.3.2c9.1.2 11.2.6 11.3 1.8l.3 10.7.1 9.1 22-.2V847h-22v-21l-11.2-.2-11.3-.3-.6-21.5h21.8l.7 6.2c.3 3.3.6 8.3.6 11v4.8h22Zm46-713h22V80.2q0-10.6 1.2-12 1.5-1.3 0-1.2-1.1 0-1-.7V55.8L341 46h-7.2c-4 0-9-.3-11-.6l-3.8-.7V23h22v23h23v45h23V79.3a303 303 0 0 0-.6-33.2c-.3-.3-3.3-.4-6.7-.3s-8.3 0-11-.3l-4.7-.7V23.1l-22.5-.6-.6-22.5H364v23h23V0h23l-.5 22.5-22.5.6V46h23V23h23V0h22v23h23V0h23l-.5 22.5-22.5.6V45h-23V23h-22v23h22v45h23V46h23v45h23l-.2 11.3-.3 11.2-22.5.6V137h23v-23h22V91h-21.8l-.3-15.2v-7l-.5-22.2V46H534c7.7 0 10.9.4 11.2 1.3q.6 1.5.6 0c0-1 3-1.3 11-1.3h10.8l.7 4.6c.3 2.6.6 7.5.6 11V68h23V46h-5.3l-5-.2-8-.4-4.7-.7V23h23V0h22v23h-22v23h22v22h-22v23h22v23h-22v23h23v-23h22V91h-22V68h22V46h23V23l-22.5-.5-.3-11.2L637 0h23v23h23l-.2 11.3-.3 11.2-11.2.3-11.3.3V68h23V46h23V23h22v21.7l-3.7.7-2 .2-4.4.1-2.6.1-5 .2H706l-.1 5.3-.3 10.7-.2 5.5-11.2.3-11.2.3V91h23V68h22V46h23v21.7l-10.5.1-6.3.2H728v23h23v23h23v23h23v-23h22v23h23v-23l-22.5-.5v-22l23-1 .3-8.5c.2-7.5.1-10.7 1.7-12 1-1 3-1 6.6-1h1.3q8.6 0 8.9 1.2.3 1.5 2.1-.5c1.6-1.5 3.4-1.7 13-1.5l11.1.3V72l-.3 10.8-.2 7.2h-10.9c-13.6 0-17.1-.6-17.1-3.1 0-1-.4-1.9-1-1.9s-1 .5-1 1-.6 1-1.3 1-2 .9-2.7 2c-1.1 1.5-2.6 2-6.2 2H842v23h23V91h22v23h-22v23h-23v21.8h-.5l-4.3.2c-2.6.2-7.7.2-11.5.1h-.6l-6.1-.3V137h-22v22h22v23h23v-23h23v23h21.7l.7 6.2.3 6.7.3 4.8v5.3h11c5.9 0 10.9.2 11 .4.3.2.4 5.4.2 11.5l-.3 11.1H888v22h-23v-22l-11.2-.2-11.3-.3-.3-11.2-.3-11.2-11.2-.3-11.2-.3-.3-11.2-.3-11.3h-11c-9.7 0-11 .2-11 1.8l-.4 7.7c0 3.3-.2 7.7-.3 9.8l-.2 3.8-21.5-.6-.3-11.2-.3-11.3H751v23h23v23h-9.8c-5.5 0-10.8-.3-11.6-.6-1.3-.5-1.6-2.5-1.6-11.5v-10.8l-11.3-.3c-8-.2-11.2-.7-11.3-1.6L728 192l-.1-10H706l-.3 3.8c-.2 2-.2 7.2 0 11.4l.3 7.8h22v23h23v22h-6.2c-3.5 0-8.7.3-11.5.6-5.2.7-5.3.7-5.3 4 0 2-.6 3.6-1.2 3.8l-.7.2-13.9 3.1c-3.4.6-5.9.8-6 .5-.4-.6-.5-3.3-.4-6.1l.4-5.1H728v-23h-22v-23l-11.2-.2-11.3-.3-.3-11.3-.3-11.2H660v23h23v10.7c0 5.9 0 8.7-1.4 10s-3.9 1.3-8.9 1.3H660v-22l-11.2-.2-11.3-.3-.3-11.3-.3-11.2H615v-23h22v23h23v-23h23v-22h23v-23h22v23h23v22h23v-22l-11.2-.2-11.3-.3-.3-11.2-.3-11.2-11.2-.3-11.2-.3-.3-11.3L728 91h-21.8l-.3 11.2-.3 11.3-11.2.3-11.2.3-.3 11.1-.3 11.3-11.2.3-11.3.3v21.7l-3.7.3h-13l-6.3-.2V137h-21.9l-.3 3-.2.7c-.8 4.9-.8 11.2 0 15.2v.3l.4 2.5-6 .6-4.7.2h-2.8l-1.4-.1a15 15 0 0 0-5.6 0l-1.2.4h-.5q-.3.1-.4 1.1c-.4 1.4-.4 4-.4 10.1v11h22v7.8c0 4.2.3 9.4.6 11.4l.7 3.8H637v45h-11c-8 0-11 .3-11.1 1.3-.4 3.7-.6 8-.7 14.4l-.2 7.3-7.2.1c-5 0-11.1 1-11.8 1.5a311 311 0 0 0-26-9.4q1.3.4.8 0c-.5-.3-.8-3.5-.8-7.2v-7l11.3-.2 11.2-.3.3-11.2.3-11.2 11.2-.3 11.2-.3.3-11.2.3-11.2v-.1h-2.7l-8.6-.2-10.5-.3-.6-.2q-.2 0-.2-.6l-.3-10.4-.2-8.7V182h-23v23h23v23l-11.3-.2-11.2-.3-.3-11.2-.3-11.2-11.2-.3-11.2-.3-.3-11.2-.3-11.3H524v-11c0-6-.1-11-.2-11l-11.5-.6-11.3-.6V137h-23v21.8l-5.4.4c-3 .2-8.2.2-11.5 0l-6.1-.4V137h-22v22h22v23h23v-23h23v23l11.3.2 11.2.3v22h-22l-.6-22.5H478v23h23v23h23v-23h22l-.2 11.3-.3 11.2-10.7.3-10.7.3-.4 10.7-.3 10.7-4.5.6a62 62 0 0 1-11 .1c-6-.4-6.6-.3-7.1 1.6-.3 1.1-1.6 2.2-3 2.5-1.2.2 1 .5 5.2.6s10.5.4 14.3.7c6.7.7 6.7.7 6.7-1.8 0-3.2 1-3.4 12.8-3l9.4.4-.4 4.4q-.3 3.6.4 4.1c-32.5-6.2-67.7-6-99.7.8-4.4 1-8.9 1.8-10 2s-2.7.5-3.5.8V251h22.2l-.4 4c-.3 3.7-.2 3.8 2.2 3.4 6.3-1 18.6-2.4 22.8-2.6q5.4 0 1.4-.5c-2.6-.4-3.2-.9-3.2-2.9V250h-23v-22h-21.7l-.8 11-.7 11H410v-22l-11.2-.2-11.3-.3-.3-11.2-.3-11.2-11.2-.3-11.2-.3-.3-11.2-.3-11.2-11.2-.3-11.2-.3-.3-11.4-.3-11.3-4.1.5H325l-6-.6V137h22v22h23v-22l-11.2-.2-11.3-.3-.6-22.5h-21.8l-.6 22.5-11.2.3-11.3.3V159h23v23h22v23h23v23h23v22h-23v23h23v-21.7l10-.6c5.5-.3 10.7-.4 11.5 0 1.2.4 1.5 2.6 1.5 10.3v9.7l8.7-2.7c-9.7 3.3-21.8 8.5-31.6 13.3l.2-.1a51 51 0 0 1 8.3-4.1l6.9-3h-7.2c-7.1-.1-7.3 0-7.9 2.6l-1.1 5-5 2.7-12.4 6.7-3.5 1.8c-7 3.6-44.6 35-47.6 39.7L309 343q-2.7 3-5.3 6.4l-3.8.3-3.9.4.1 3v4.8q-.2 1.3 0 1l4-5 3-3.6a306 306 0 0 0-30.9 50c1.4-3.1 2.2-5.4 1.8-5.4-.6 0-1-1-1-2.1q-.1-2.3 2-1.6 1.9.8 2.9-2.5c.6-1.6 3.4-6.6 6.4-11l5.3-8.3-8.3.3-8.3.3v20h-22v-20h22v-20h-22v-20h22v-21h-10.9c-7.8 0-11-.4-11.4-1.2a57 57 0 0 1-.3-8.8l.1-7.5 22.5-.6V273h-22v-22h22v22h23v-11c0-9.5.2-11 1.8-11.3 1.4-.4 17.9-.2 20.5.2.4 0 .7 5 .7 11.1v11h22v-21.8l11.5-.7 11.5-.7V228h-23v22h-22v-22h22v-23l-21.5-.5-.6-22.5H296v23h23l-.5 22.5h-22l-.3-11.2-.3-11.2-11.2-.3-11.2-.3-.6-22.5H251v-11c0-8-.3-11-1.2-11.1-2-.2-7.5-.5-15-.7l-6.5-.2-.3-4v-18l11.3.2 10.7.3.6 2.2.2 8.6.2 8.1v2.6h22v-22l-21.5-.5-.3-11.2-.3-11.3h-9.8a69 69 0 0 1-11.5-.6c-1.4-.5-1.6-3.5-1.6-23V68h10.8c10.7 0 10.9 0 12 2.6 2.3 5 1 19.4-1.7 19.4q-1.6 0-.4.8c.6.4 1.1 3.2 1.6 7.5l.2 4.2.4 8.1v.2l.1 3.2h22V91h-5.8c-6.5 0-10.2-2-10.2-5.2a61 61 0 0 0-1.2-8c-1.5-7.4-.8-8 8.1-7.4 8.4.5 9.1 1.5 9.1 12.3V91h22.9l.3-12.2c.2-6.8.2-17 0-22.5L296 46h-6.2c-3.4 0-8.6-.3-11.4-.6l-5.3-.7V23h-22V0h22v23h23v23h23Zm216.1 820H546v-20h23v20h23v-20h22.5l-.1 4.3-.3 10-.1 5.7h-22v22h10.8c6 0 11 .2 11.3.4.2.2.3 5.4 0 11.5L614 956h-22v23h22v22h-22v-22h-23v22h-23v23h-22v-23h22v-22h-22v-23h22v-23h-22v-22h-23v22h10.8c6 0 11 .2 11.3.4.2.2.3 5.4 0 11.5L523 956h-22v23h21.8l.7 9.5a56 56 0 0 1 .1 11c-.4 1.2-2.6 1.5-11.6 1.5h-11v23h-23v-23h-23v23h-22v-10.9c0-9 .3-11 1.6-11.5.8-.3 5.8-.6 11-.6h9.4v-22h-22v22h-23v23h-23v-23h-23v23h-2.6l-8.6-.2-11.3-.3v-22l11.3-.3 11.2-.3.1-5.7v-9c-.5-7-.2-7.2 12-7.2H387v22h23v-22l-11.2-.2-11.3-.3-.3-11.2-.3-11.2-11.2-.3-11.2-.3-.3-11.2-.3-11.2-11.2-.3-11.2-.3-.3-10.7-.3-10.8H319v22h22v23h23v23h-23v22h-22v23h-23l.5-22.5 11.3-.3 11.2-.3V979h-23v22h-23v23h-22v-23h22v-22h-22v-23h22v23h23v-23l-11.2-.2-11.3-.3-.6-22.5H251v-22h-23v22h22v23h-22v23h22v22h-22v23h-23l.2-11.2.3-11.3 11.3-.3 11.2-.3V979h-23v22h-23v23h-23l.2-11.2.3-11.3 11.3-.3 11.2-.3V979h-23v-23h-22v23h10.8c6 0 11 .2 11.3.4.2.2.3 5.2 0 11l-.2 10.6h-21.7l-.7 5c-.4 2.7-.5 7.8-.3 11.2l.3 6.3-11.2.3-8.7.2H114v-10.9c0-9 .3-11 1.6-11.5.9-.3 6-.6 11.5-.6h9.9v-22h-23v22H91v23h-2.6l-8.7-.2-11.2-.3.2-10.4c.1-7.3.6-10.6 1.5-11.2a46 46 0 0 1 11-.9H91v-11c0-6-.3-11-.7-11.2-.5-.2-5.6-.2-11.5 0l-10.8.3v21.9H46v23H23v-23H0v-22h23v-23H0v-23h23v-22H0v-20h23v20h23v-20h22v20h23v-20h23v20h23v-20h22v20h23v-20h23v20h23v-20l11.1.2 11.1.3.2 9.5.1 9.5 11.3.3 11.2.3V933h23v-22h-23v-20h23v20h23v-20h22v20h23v-20h23v20h23v-19.9l9.3-.3h2.6c6-.3 8.8-.4 10 1 1.1 1 1.1 3.2 1.1 7.2v12h22v-20h23v20h23v-20h23.2l-.5 8-.1 1.3c-.4 5.3-.6 8 .7 9.4 1.2 1.2 3.7 1.3 8.6 1.3zM159 370h23v-20h23v20h23v-20h-23v-20h23v-21h-23v-18h-23v18h-23v21h-22v-21h22l.2-8.7.3-8.8 22.5-.6V273h-23v-22h10c5.4 0 10.5-.3 11.4-.6 1.3-.5 1.6-2.5 1.6-11.5V228h-23v-23h-22v23h-23v22H91v23h23v18H91v18H68v21h23v20h23v20H91v-20l-22.5-.5-.3-9.7-.3-9.8H46v-21H23v21h23v20H23v20h23v-20h22v20h23v20h23v21H91v22H80.1c-9 0-11 .3-11.5 1.6-.3.8-.6 5.8-.6 11v9.4H46v-22h21.9l.3-10.6c.2-5.8.1-10.8-.1-11s-5.3-.4-11.3-.4H46v22H23v22h23v23h22v23H46v23h22v22h23v23h23v22h23v21l11.3.2 11.2.3V634H182v-22h23v22h23v-22h-23v-21h23v-22h-23v-23h23v-10.9c0-10.8 0-10.9-2.5-11.5-1.5-.4-3-.4-3.6 0-.6.3-4.6.3-9-.1l-7.9-.7V501h23v23h19v-9.7c0-5.4.2-12 .4-14.8s.1-3.5 0-1.7l-.5 3.2H228v-23h-23v-23h23v-22h-23v-22h-23v-21h-23Zm683 108v23h23v23h23v-23h-23v-23h22v11.5c0 6 0 8.9 1.4 10.3 1.4 1.2 4 1.2 8.8 1.2H910v23h23v22h-23l-.2-11-.3-11.1-9.8-.4c-13-.4-13.1-.3-12.2 12.7l.7 9.8H910v23h23v22h23v-22h-23v-23h23v-22h23v-23h-23v-23h-23v-23h23v-22h23v-22h-23v-21h-23v-20h23v-20h-23v-20l-22.5-.5v-6c0-3.3-.1-8-.3-10.3l-.2-4.2h-22v-18h-23v-18h-23v18h23v18l22.5.5.6 20.5h21.8l.3 9.6c.2 5.3.1 9.8-.1 10s-5.3.4-11.3.4H888v-20h-23v-21h-23v21h23v20h-23v-20l-22.5-.5-.6-20.5H797v21h22v20h23v20h23v20h-23v-20l-22.5-.5-.3-9.7-.3-9.8H797l-.1 3-.1 5.5v7l.2 4.5h22v20h23v21h-23v22h23v22h-23v23h-22v23h22v-23zM137 783h-23v-10.5c0-7.7-.3-10.5-1.2-10.6h-6.6c-2.9 0-7.5 0-10.2-.4l-5-.7V740h23v22h23v-22h22v22h23v21h23v-21l-3.7-.2h-1.8l-.6-.2c-3.4-.3-8.6-.6-11.5-.6H182v-21h-23v-22h-22v-21h-23v-22H91v-21h23v-20h23v-22h-23v-21l-11.2-.2-11.3-.3-.3-10.7L91 569l-11.2-.3-11.2-.3-.6-22.5H46v23H23v22h23v21h22v22H46v20H23v21h23v22H23v21h23v22H23v22h23v21H23v21h22v22l-5.2.2H31q-7.9-.4-6.7 5c.3 1.7.2 3.6-.3 4.2-1.1 1.3-1.6 9.7-1.3 23.4L23 869h23v-43h22v-22h23v43h23v22h23v-22h-23v-43h23Zm637 128h23v-20h22v20h23v-20h23v20h23v-20h22v20h-22v22h22v23h-22v23h11c6 0 11-.3 11-.7l.4-10.8.5-10.7c0-.4 5-.8 11.1-.8h11v23h23v-20c0-2.6.3-3 2.7-3l8.6.2c8.7.2 11 .5 11.2 1.6v.2c0 .8.5 2.4.9 3.5 2.6 6.6 2.7 7.1 1.1 10.8-2.8 6.7-2.8 6.7 9.5 6.7h11v22h-22v-11c0-12.4-.2-12.7-7.4-9-3.7 1.8-3.8 1.8-7 0a14 14 0 0 0-5.9-2H956v22h21.9l.3 11c.2 6.2.1 11.4-.1 11.6s-5.3.4-11.3.4H956v-23h-23v23h-21.9l-.3-8.8c-.2-4.8-.2-10 0-11.5l.3-2.7H933v-22h-23v22h-22l-.1 7.7v11.5l.3 3.8h-23.3l.3-11.3.3-11.2 11.2-.3 11.3-.3v-21.8l-11.3-.3-11.2-.3-.3-11.2-.3-11.2-11.2-.3-11.2-.3-.3-11.2-.3-11.2-11.2-.3-11.2-.3-.3-10.7-.3-10.8h-12.6c-5.2 0-7.8 0-9.1 1.3-1.4 1.4-1.3 4.2-1 9.9v1.8l.3 8.5 11.2.3 11.3.3V956h23v23h23v22h-23v23h-2.6l-8.7-.2-11.2-.3v-22l11.2-.3 11.3-.3V979h-23v22h-22v-22h-23v22l11.1.2 11.1.3v17.2l-.2 5.3h-22v-23h-23v23h-2.6l-8.6-.2-9.7-.3q-1.3-.2-1.6-.7v-21.3l11.3-.3 11.2-.3v-10.8c0-7.8-.3-11-1.2-11.3-.7-.3-6-.3-11.5 0l-10.3.4v21.8h-22v-22h22v-23h-22v6.3c0 2.5-.2 6-.4 8.8l-.2 2.3-.7 4.6H683v-22h23v-23h22v23h23v23h23v-23h23v-23h-23l-.2 11.3-.3 11.2h-22l-.3-11.2-.3-11.2-11.2-.3-11.2-.3-.3-10.7-.3-10.8h-11c-10.8 0-10.9 0-11.5 2.6a20 20 0 0 0 0 6.3c.3 2.2.3 6 0 8.5l-.7 4.6h-21.6l-.3 11.3-.3 11.2h-45l-.3-11.2-.3-11.3H615v-22h22v-20h46v20h23v-20h22v20h23v-20h23Zm-68-149h-23v21h-46v21h46v22h23v21h22v22h23v-22h23v22h22.8l.3-22H774v-21h23v-22h-23v-21h23v-21h22v21h-12.6c-5.3 0-8 0-9.2 1.3-1.4 1.3-1.3 4-1 9.5v1.7l.3 8 11.2.3 11.3.3V826h-12.4c-5.6 0-8.2 0-9.5 1.3-1.1 1.2-1.1 3.5-1.1 8v2.5c0 4.4 0 6.7 1.1 7.9 1.3 1.3 4 1.3 9.5 1.3H819v-21h23v21h23v21.7l23 .2V847h-23v-21h23v-22h-23v-21h23v-21l-3.2-.1-14.5-.7-5.3-.2v-21h-23v-22l-11.2-.2-11.3-.3-.3-8v-1.6c-.3-5.5-.4-8.2 1-9.6 1.2-1.3 4-1.3 9.2-1.3H842v-22h23v22h23v-22h-23v-21h-23v21h-23v22h-22l-.1 8.8c0 4.8-.2 9.4-.3 10.2 0 1.2-2.2 1.6-11.4 1.8l-11.2.3V740h-23v22h23v-22h23v-22h22v22l-11.2.2-11.3.3v21.6l-11-.3-11-.3-.3 10.7-.3 10.8H751v-20.7l-10.7-.7c-6.8-.4-11-1-11.5-1.9a44 44 0 0 1-.8-10.5V740h-22ZM182 546v23h23v22h-23v21h-22.8l-.1-10.5-.2-10.5H182v-22h-23v-23zv-21.8l-6.2-.7c-3.5-.4-8.6-.5-11.3-.3l-5 .3-.3 11.3-.3 11.2H137v23l11.3.2 11.2.3v9.5c.1 5.2 0 10-.3 10.7-.3 1-3.5 1.3-11.3 1.3H137v-22h-23v-23H91v-21.7l-5.7-.7a103 103 0 0 0-11-.3c-6.2.3-6.3.3-6.3-13V501h23v-23H80c-6 0-11-.3-11.3-.7a79 79 0 0 1 0-11.6l.6-10.7H91v-22h23v-22h23v-21h-23v-20h23v-20h-23v-20H91v-21h23v21h23v20h22v-20h23v-21h23v21h-23v20h-23v20h-22v20h22v21h23v22h23v22h-23v23h23v23h-23v23h23v22Zm159.2-78c-.3-4.4-.1-9.1.2-10.5.6-2.5.7-2.5 11.6-2.5h11v-21.8l-9.7-.3-4-.1-5.3-.2c3-6 6.5-12.3 9.2-16.4 1.6-2.3 2.6-4.2 2.3-4.2v-.5l3.6-.3 3.7-.4.4-4.8c.1-2.5 0-4.5-.1-5l1-1c2.4-3 4.3-5.5 4.2-5.9a62 62 0 0 1 8.4-9.3c-5 5.2-8.6 9.2-8 9.2q1 0 2.2-1.5l.5-.6.5-.8c1-.9 2.8-1.1 7.3-1.1h6.8v-5.9q0-3.5.6-5.6.4-1.5 1.5-2.9 1.8-2.3 1.7-2.6c.7-.2 2.2-1.3 3.4-2.6l1.2-1.2q0 .9 2.8.7l3.7.1h7.1v3.2c0 1.8.3 6.3.6 10l.4 3.7v3.1h23v-20h-23v-4.8c0-2.6.5-5.3 1.2-6q.8-.9.6-1.1l.4-.1c.7 0 4.8-2 9.2-4.5a71 71 0 0 1 14.7-7c3-1.3 7.6-3 10.4-3.6s5.2-1.5 5.5-1.9a67 67 0 0 1 15.8-3.7c-8 1.6-15.8 3.5-15.8 4q.1.6 1.5.7 1.5-.2 1.5 4v4h23v-6.5c0-5 .4-6.6 1.8-7.5l.2-.2h1.3q6.5 0 6.7-1v-.1c.3.4 2.9.6 6 .5 5.6-.4 6-.2 6.5 2.1.4 1.4.5 4.7.3 7.3l-.3 4.9-22.5.6V370h23v-20h19v20h-9.4c-8.9 0-9.4.1-10 2.3-.8 3-.8 10.6 0 14.6l.7 3.2 9-.2 9.2-.2.3 10.7.3 10.6h-18.9l-.7 8.3a51 51 0 0 0 0 11c.7 2.7.7 2.7 10.1 2.7h9.4v13.8q0 4.8-.2 8.2H501v10.5c0 8.8.3 10.5 1.5 10.5q1.5.1 2 1.3c.4.8 2.7 1.1 8.1.9l7.4-.4v8.3l-.2 7.2q0 3.9-.2 6.7h-6.5q-7 0-7.4-1.2-.2-.3-.3.6a194 194 0 0 0-.8-22c-.9-1.2-11.1-1.4-71.1-1.4l-.6-21H410v21h-22.5l-.6-21H364v21h-32 9.5ZM114 136H91v-22l-22.5-.5-.2-8-.2-11.2L68 91h23V68H69V46h22v22h23V46h-10c-5.4 0-10.6-.3-11.4-.6-1.3-.5-1.6-2.5-1.6-11.5V23H80.1c-9 0-11-.3-11.5-1.6-.3-.8-.6-6-.6-11.5V0h23v23h23V0h23l-.2 11.3-.3 11.2-22.5.6V46h23v22l22.3.5.1 5 .4 11.3.2 6.2h22V68h-23l-.2-11.2-.3-11.3h-6l-10.7-.3-4.8-.2V23h11c8 0 11 .3 11 1.3V46h23v22h23V46h22v22h-22v23h-23v23l-22.5-.5-.3-11.2L159 91h-22V68h-23v23h22v23h-22Zm819 7.2V159h23v-22h-23v-23h-23v22h-22v-22h22v-2.6l.2-8.7.3-11.2 22.5-.6V114h23V91h21.9l.6 4.3.3 3.7-.1 5-.2 9.5-22.5.6V137h23v22h22v23h-22l-.1-9.2v-11.3c.2-1.9-.5-2-11.4-2.1l-11.5-.1v22.6l11.2.3 11.3.3v22h-22l-.3-11.3-.3-11.2H933v23h23v23h23v-23h22v23h-22l-.2 7.2c-.1 4-.2 9-.1 11v3.6l-2.6.2h-1.6a119 119 0 0 1-12.4.2l-6.1-.4V228h-23v22h-22v-22h22v-23h-22l-.1-7-.1-9v-4.5l.2-2.5h22v-22.7h-10.4c-5.7 0-10.9-.4-11.5-.7-.7-.5-1.1-4.6-1.1-11.2V137h21.2l.6.4q1.4 1.4 1.2 5.8M888 390v-20h-23v-20h23v20h22v20h23v21h23v22h-23v22h-23v23h23v23h23v21.7l-7 .5c-4 .3-9.1.3-11.6 0l-4.4-.5V501h-23v-23h-22v-23h-23v-22h23v-22h-23v-21ZM455 675v-9.9c0-8 .3-10 1.6-10.5.8-.3 6-.6 11.5-.6h10l-.3-10.2-.3-10.3h-10.3c-7.9.1-10.6.5-11.3 1.6a36 36 0 0 0-.9 10v8.8l-10.7.3c-6 .2-11 .1-11.3 0q-.3-.5-.3-4.6l.2-8.5c0-5.3-.3-7-1.2-7.4l-1-.1c-2-.3-6-.6-10.5-.6H410v-21h23v-21l11 .2 11.2.3.2 6c.2 3.3 0 8-.2 10.2l-.5 4.3h-21.6l-.1 8.2V634h22v-22h23v-21l-11.2-.2-11.3-.3-.3-10.7-.3-10.8H478v-20h23v20h18.8l.2 8.6V591h-19v-22h-23v22h21.7l.7 5.3c.3 2.8.6 7.6.6 10.5v5.2h19v22.1l-7.4-.6c-11-1-11.6-.6-11.6 6.8a88 88 0 0 1-.6 10l-.7 3.6-10.6.3-10.6.3-.3 10.3-.3 10.2H501v-10.8c0-5.1 0-7.8 1.3-9 1.5-1.4 4.4-1.2 10.7-.7h1l8.9.8.3 4c.2 2.3.1 6.8 0 10l-.4 5.7H501v9.5c0 7-.3 9.6-1.4 10.2q-.4.3.2.4-12.6-.3-24.2-2.3 1.4.1 2-.5c.9-.8.8-2.7.7-6.3l-.1-2-.3-9zv6q0 6-1.2 6-1 0-.3.5a177 177 0 0 1-21-8.2l1.2.4-.5-2.4-.4-2.3ZM182 478h-23v-23h23v-22h-23v-22h-22v22l22.3.5-.2 10.8-.2 10.7H137v-22h-23v22H91v23h23v23H91v23h23v22h23v-22l-11.5-.2-11.5-.2V501h23v23h22v-23h23Zm546-88v.1l9-.3 9-.3v21.6l-8.7-.3c-6.1-.2-8.8-.7-9-1.6l-.2-10.2-.1-8.9zh-22v21h22v22h-22v-22h-23v-21h23v-20h22v-20h-22v-20h22v-21h-22v4.4c0 2.4-.3 7-.6 10.5l-.7 6.1H683v20l22.5.5v19l-22.4.6-.6 19.4-22.5.6V370h23v-20h-11c-6.5 0-9.5 0-10.9-1.5-1.1-1.2-1.1-3.5-1.1-7.8V330h23v-21h-4c-2.9 0-4.2-.5-5-2q-1.1-1.8.8-3l6-1.7q1.2-.2 1.6 0 .6 1 .6 3.2v3.5h23v-14.8l6.2-1.4c3.5-.9 8.4-1.3 11-1l4.3.4q.5 1.8.5 8v8.8h18v21h-18v20h18v20h-18ZM91.7 955.3c-.4-.3-.7-5.5-.7-11.5v-10.7l-11.3-.3-11.2-.3-.3-10.7L68 911H46v22H23v23h23v-23h22l.5 22.5 11.3.3 11.2.3V979h23v-23h23v-23h22v23h23v23h23v-23h-10.8c-6 0-11.2-.3-11.5-.7s-.7-5.5-.7-11.5v-10.7l-11.2-.3-11.3-.3-.6-21.5H137v22h-23v-22H91v22h23v23h-10.8c-6 0-11.2-.3-11.5-.7M569 569h-18v-23h18v-12.2c0-5.7 0-8.5-1.4-9.8-1.2-1-3.4-1-7.7-.9h-1.2l-.7.1-6.5.3-.3-11.8-.3-11.2h12.9l.6.1 4.6.7V524h23v-22.7l6-.6 16.5.1-.3 10.7-.3 11.5-4.2.2-8.7.4h-2.5q-4.4-.2-5.6 1c-1 .9-1 2.9-1 7.1v.5l.1 2.8v11h22v-7.9c0-4.3.3-9.3.6-11l.6-3.1h21.5l.7 20c.4 11.1.5 20.4.2 20.7s-.6-3.7-.6-9V546h-10.9c-9 0-11 .3-11.5 1.6-.3.9-.6 6-.6 11.5v9.9h-22l-.2 10.8-.3 10.7-11.2.3-11.2.3-.3 10.2-.3 10.2-8.3.3c-6.2.2-8.4 0-8.8-1-.2-.8-.3-5.7-.2-10.8l.3-9.4 8.8.3 8.7.3Zm-205 49v-4l.1-2H387v-21l-11.2-.2-11.3-.3-.3-10.7-.3-10.8h-14.2c-4.2 0-6.4-.2-7.5-1.3-1.2-1.3-1.2-3.7-1.2-8.2v-.8c0-3 .2-5.9.4-7.3l.6-1q.8-1 2.6-1.1 2.4-.3 8.5-.3H364v20h23l.2-9.7.3-9.8 11.3-.3 11.2-.3V569h23v-20l11.3.2 11.2.3-.4 9.7-.3 9.8H433l-.3 10.7-.3 10.8-11.2.3-11.2.3-.3 10.1-.3 10.3-11.2.3-11.3.3v20.8l-8.2.3-7.6.3-3.2-4.2c-2-2.9-3.8-5.2-4.2-5.3h-.2c.2-.5.4-3 .4-6m274-185v4.2l-.2 16c-.1 11.2-.4 16.1-.5 11l-.4-9.2H615v-22h-23v-22l-22.5-.5-.6-20.5H551v-20h18v-9c0-11 0-11 13.5-11h9.5v20h22v8.4c0 4.6.3 9.1.6 10 .5 1.3 2.5 1.6 12 1.6H638v3.8l-.2 6.4-.3 10.3h-22l-.6-20.5H592v21h22v10.9c0 5.7 0 8.4 1.4 9.8 1.3 1.3 4 1.3 9.2 1.3h2Zm68 68.3 3.3-.6 17.5.1c1 .8 1.2 3.2 1.2 11.2v10.7l-10.7.6c-5.8.4-10.7.8-10.9 1s-.4 5-.6 10.7l-.3 10.5-11.3.3-11.2.3V569h23v-23h22v-21.9l9-.3 9-.3V546h-18v23h-22l-.2 10.8-.3 10.7-11.2.3-11.2.3-.3 10.2-.3 10.2-11.2.3-11.3.2v-21h23v-22h-23v-9.7a195 195 0 0 0-.3-15c.4 1.5 1.8 1.7 11.9 1.7H683v-22h23ZM797 23V0h22v23h23v21.7l-4.6.7c-2.6.3-7.8.6-11.5.6H819v21h-11.3c-11.8 0-13.6-.6-13.8-4.4q-.2-1.6-.8 1.4l-.6 3.5-9.2.3-6.9.2H774V27.3l.2-4.3ZM478 250h23v-22h-23v-23h-10c-5.4 0-10.6-.3-11.4-.6-1.3-.5-1.6-2.5-1.6-11.5V182h-22v-23l-9.2.1a148 148 0 0 0-12.6.8c-.9 0-1.2 3-1.2 11.1v11l11.3.2 11.2.3v22l-11.2.3-11.3.3V228h23v-23h22v23h23ZM296 350v-20h23v-21h22v-18h-22v-18h-23v18h-23v18h23v21h-23v20Zm637.7 605.4c-.4-.4-.7-5.6-.7-11.6V933h-22v-22h22v-20h23v20h21.9l.3 10a98 98 0 0 1 0 11c-.2.6-5 1-11.3 1h-10.8l-.3 11.3-.3 11.2-10.5.3a50 50 0 0 1-11.3-.4M341 847v21.8h11.5l11.5.1V847h23v-21l-11.2-.2-11.3-.3-.3-10.7-.3-10.8H341v22h-22v21Zm92-21h-23v21h23v21.8h11l11 .1V847h23v-21l-11.2-.2-11.3-.3-.3-10.7-.3-10.8H433zm-46-712h-23v23h23v22h23v-22h23v-23h22V91h-21.9l-.6 22.5-22.4.6-.6 22.4-10.5.3a50 50 0 0 1-11.3-.4c-.4-.4-.7-5.6-.7-11.6Zm478-68v9.4c0 5.2-.3 10.2-.6 11-.5 1.3-2.4 1.6-10.8 1.6a50 50 0 0 1-11-.7 51 51 0 0 1-.6-11V46zV23l-22.5-.5-.3-11.2L842 0h23v23h23V0h22v23h-21.7l-.4 5.6-.3 5.1a94 94 0 0 1-1 11.1 81 81 0 0 1-16.6 1Zm45.2-14.4q0-4.7.4-6.8.1-.6.6-1c1.1-.6 4.4-.8 10.8-.8h11V0h23v23h22v22h-21.5l-.3-10.7-.2-8.7V23h-23v23h23v2.6l-.2 8.2-.3 10.7-9.5.2c-5.2 0-10.3-.1-11.2-.4-1.5-.4-1.8-1.7-1.8-10.2v-.6q0-8.6-.8-10.1 0-.5-.4-.5 0-.2-.4-.3a63 63 0 0 0-10.9-.6c-7.7 0-9.4-.3-10-1.6a53 53 0 0 1-.4-6.5zM774.2 228H797v-23h22v23h23v22h-21.7l-.7-6.1a131 131 0 0 1-.6-11V228h-13.1c-4.7 0-7.2 0-8.3 1.2-1.3 1.3-1.2 4-1 9.5l.2 2.6.4 9.7H819v22h-22v-12.4c0-5.6 0-8.2-1.3-9.5-1.2-1.1-3.5-1.1-7.9-1.1h-1.3c-4 0-8.5-.3-10.1-.6l-2.9-.5.3-10.5ZM455 433h-21.9l-.1-9.7v-11c0-1 2.9-1.3 11-1.3h11zh23v-22h-10c-5.4 0-10.6-.3-11.4-.6-1.3-.5-1.6-2.4-1.6-10.5V390h-22v21h-23v22h23v22h22Zm322 199.8V569l9.7.3 9.8.3.3 10.8.3 10.7H819v21l-11.2.2-11.3.3-.3 10.2-.3 10.2-2.7.3a84 84 0 0 1-9.5 0ZM819 524h23v22h23v23h23v-23h-23l-.2-11.2-.3-11.3-11.2.2-11.3.2V501h-23Zm-136-69v23h-23v-23zv-22l-22.5-.5-.3-11-.3-11 11.6.3 11.5.3V433h21.7l.7 3.8c.3 2 .6 7 .6 11v7.2ZM546 137h-22v22l21.5.5.3 11.3.3 11.2H569v-23h23v-22h-23v21.8l-6.8.4c-3.8.2-9 .2-11.5 0l-4.7-.4Zm188.3 22.3-6.3-.4V137h-22v21.8l-6.4.7c-3.5.4-7.8.4-9.5 0s-4-.4-5 0c-2 .6-2.1 1.5-2.1 11.6V182h23v-23h22v23h23v-23h-4c-2 0-4.4.1-5.2.3s-4.1.1-7.5 0M637 979h-21.8l-.4-4.2c-.2-2.4-.2-7.6 0-11.5l.5-7.3H637zh23.5l-.3 10.9-.4 10.8v.3H637v23h-22v-10.9c0-9 .3-11 1.6-11.5.9-.3 5.8-.6 11-.6h9.4Zm205-410v22h23v21h23v-21h11c6.6 0 11-.4 11-1l.1-10.7v-9.8l-11-.3-11-.3-.3 10.8-.3 10.8h-22l-.3-10.7-.3-10.8zM546 826v-22h-22v-21h-23v21h22v22h-21.9l-.2 2.8v10.5l.1 7.7h23v-21ZM114 697v21h23v22h-23v-22l-11.2-.2-11.3-.3-.3-10.2L91 697l-11.2-.3-11.2-.3-.3-8.5v-1.8c-.3-5.7-.4-8.5 1-9.9 1.3-1.3 4-1.3 9.1-1.3H91v22Zm592 65h22v21h-21.8l-.4 3.4a90 90 0 0 0 0 10.5l.4 7.1H728v22h-22v-22h-23v-21h23ZM137 654h22l.2 4.3c0 2.3.2 5.6.4 7.2s0 4.5-.3 6.3l-.5 3.2H137v22h22v-22h23v-21l-11.2-.2-11.3-.3-1-20-10.7.4-10.8.3zm591-63v21h18v21.9l-6.2-.4-8.5-.4c-2.1-.1-2.3-.5-2.3-6.9a85 85 0 0 0-.6-10.5l-.7-3.7H706v22h-5.3c-3 0-8.2-.3-11.6-.6l-6.1-.7V612h23v-21Zm114-409v23h23v23h23v-23l-11.2-.2-11.3-.3-.3-11.2-.3-11.3zM296 933v23h23v23h22v-23l-10.7-.2-10.8-.3-.6-22.5ZM410 91h23V46l-3.2-.5c-2.6-.4-11.2-.3-19 .4-.5 0-.8 10.2-.8 22.6zm23 865h22v23h23v-23h-10.8c-6 0-11.2-.3-11.5-.7s-.7-5.5-.7-11.5V933h-22Zm-46-23v-22h-23v22zv23h23v-23Zm-341 68v-22h11c6 0 11-.3 11-.7l.3-11.5.2-10.8H46.1l-.3 11.3-.3 11.2-11.2.3-11.3.3v21.9zM159 0h23v23h23v22h-19.5l-3.5-.3V23.1l-22.5-.6-.3-11.2Zm514 1001.3c6.5.3 15.9.2 21.4 0l8.2-.5h2.4v23.2h-45v-23l9.2.2zM797 98.1l-.2 4.2-.3 9.8c-.4 1.3-2.2 1.5-11.2 1.7l-11.2.3-.1-2.7V91h23V68h22v23h-22ZM273 228h23v22h-23zh-22v-23h22Zm46 534h-4.7c-2.7 0-7.8-.3-11.6-.6l-6.7-.7V740h-23v22h23v21h23ZM524 0h45v9.8a48 48 0 0 1-.8 10.8c-.4.7-8.3 1.3-22.5 1.7l-21.7.5zm45 804v-21h-23v21zv22h23v-22Zm-387 63.7V847h21.8l1.2.3v21.3l11.5.2 11.5.3V890h-23v-21h-7.7c-4.3 0-9.5-.3-11.6-.6ZM888 390v21h22v22h23v-22h-13.2c-5.2 0-7.5 0-8.4-1.1q-1-1.2-.5-5.2v-1.5a41 41 0 0 0-.4-8.3l-.7-4.9ZM91 740H68v22H46v-22h22l.2-10.7.3-10.8 11.3-.3L91 718zm501 107h21.8l.7 3.6a50 50 0 0 1 .4 11.2c-.1 3.5-.2 5.3.6 6.2 1 1 3.1 1 7.6 1H637v-22h-22v-21h-23Zm91 64h-5.7c-3.2 0-13.4.3-22.8.7l-17 .6.2 9.6c0 5.3.2 10 .2 10.4s10.2.7 22.6.7H683zM114 783v21H91v-21l-11.2-.2-11.3-.3-.2-7c-.2-3.8 0-8.5.2-10.2l.6-3.3H91v21zm455-108h23.2l-.3-5c-.3-4.1-.4-4.8 1.3-5 2.2.3 7.7 1 14.5 2.2 3.7.8 6.7 1.7 6.6 2-.2.5-.3 2-.3 3.3 0 2.5 0 2.5-9.4 2.5-10.3 0-12.6.5-12.6 2.6q-.2 1.3-1.7 1.5c-1.5.2 3.2 1 9.2 2l13.5 2.3c2.4.4 2.5.3 2.2-4l-.4-4.4H637v6c0 4-.1 5.3-1 5.9l-2.4.6-10.1-2c-9.3-1.9-22.5-4.2-29.2-5.2-11.9-1.7-12.4-1.7-17 .1l-9.7 3.7q2.3-1.2 2-1.9a16 16 0 0 1-.6-4.3zh-23v-19.2l2.8.6 11.5 2.2 8.7 1.7Zm0-242h23v22h-23v23h-18v-23h18Zm23 179v21l-4.2-.1-3.4-.2-8.6-1.6-3-.5-3.8-.7V612zv-21h22v21Zm136-157v23h-22.5l.3-11.5.3-11.5zv-21.9l9-.3 9-.3V455ZM137 291v-18h-23v-22h23v22l11.2.2 11.2.3-.1 6-.2 8.8-.1 2.7zm341 99v-20h-23v-20h-22v20h22v20zm159-117v12.1l-6.5 3c-4 1.8-8.1 2.9-11 2.9H615v-18zv-22h22.5q.5 1.7.5 7.1v8.1h.3l.2 7.3 2.8.3q3.3.6 2.4 1.6l-3.6 1.3q-2.1.3-2.6-1.6v-.1q-.1-.7-.7-1.1c-1-.8-3.4-.9-10.9-.9Zm387 36v21h-22v-5.9c0-3.2-.3-8-.6-10.5l-.7-4.6H979v-18h22v18zm0-241-10.7-.2-22.5-.5-11.8-.4V46h22v2.6q0 2.3 1 1.9c1-.4 1 .6 1.1 2.2l.1 2.8 1-3.2c1.2-3.7 2-4 4.3-1.7q1.7 1.9 2.8.5c1.2-1.2 6.8-1.5 10.5-.5 2 .6 2.2 1.2 2.2 9zM23 68v23h23V68Zm114 410h-23v-23h23zm705 91v-23h-23v23zm0-91v-23h23v23zM660 91V68h-23v23zm0 0v23h23V91Zm0 23h-23v23h23zm137 45h-23v23h23zm-319-45h23V91h-23zm0 0h-23v23h23Zm-91 0h23V91h-23Zm-23-23h-23v23h23Zm-68 91v-23h-23v23Zm0-68h-23v23h23zm0 0h23V91h-23zM114 91H91v23h23zm455 23h-23v23h23zm0 0h23V91h-23Zm0-23V68h-23v23zm0 865h-23v23h23zm0 0h23v-23h-23Zm-91-23v23h23v-23zm-68 23v23h23v-23zm-205-23v23h23v-23Zm683 0h-23v23h23ZM387 182v23h23v-23Zm182 387h23v-23h-23Zm43.3 68.5L604 636a21 21 0 0 1-4.7-1.4c-.3-.4 3-.7 7.5-.7h8.2v-22h21.9l.3 10.6c.2 5.8.1 10.8-.1 11s-5.3.4-11.1.4c-10 0-10.8.2-11.3 2q-.3 1.1-.9 1.7zM387 182v-22.6h-23V182zm432 797v-23h-12.5c-5.4 0-8 0-9.3 1.3-1.2 1.2-1.2 3.6-1.2 8.1v3c0 5.4 0 8 1.3 9.3s4 1.3 9.2 1.3h1.6ZM665.3 523.2l-5.3-.3v-22.4h14.3l1 .2 7.7.6v21.5l-6.2.4c-3.5.2-8.7.2-11.5 0m87-501a35 35 0 0 1-1.5-11.4L750.5 0H774l-.3 11.3-.3 11.2-10.7.3c-5.2 0-9.8-.2-10.4-.6M0 251.3V228h23v22h-4.7c-2.7 0-7.8.3-11.5.6zM1024 182v23h-11c-8.2 0-11.2-.3-11.6-1.3-.2-.7-.3-5.8-.2-11.3l.3-9.9 11.3-.3ZM23 0h23l-.2 11.3-.3 11.2-10.5.3a50 50 0 0 1-11.3-.4c-.4-.4-.7-5.6-.7-11.6Zm182 0h23l-.2 11.3-.3 11.2-10.5.3a50 50 0 0 1-11.3-.4c-.4-.4-.7-5.6-.7-11.6Zm91 0h23l-.5 22.5-10.5.3a50 50 0 0 1-11.3-.4c-.4-.4-.7-5.6-.7-11.6zm387 0h23.2l-.5 7.8-.7 11.5V23h-10.3a51 51 0 0 1-11-.7c-.4-.3-.7-5.5-.7-11.5Zm205 182v-23h11.4c10.3 0 11.4.2 11 1.8-.1 1-.3 6-.3 11.4l-.1 9.8zm-318.8 830.8.3-11.3h22l.3 11.3.3 11.2h-23.2ZM819 46V23h-22l-.1 5.3-.1 9.7v1.9q-.2 4 .7 5c1 1.1 3 1.1 8 1.1h2.5Zm183 62.4v-2.2c0-3.2-.2-7-.4-9.5l.1-5c.2-.4 5.3-.7 11.4-.7h10.9v23h-21.8ZM296 740h23v-22h-23zm0 64v22h23v-22Zm114 0h-23v22h23Zm91 0h-23v22h23zm91 43h-23v22h23zm159-21v-22h23v22zm91-22h23v22h-23zm23-371h-23v-22h23zm159 523v23h-22v-23zm0 45v23h-22v-23zm-455-68v-22h-23v22zm-91 0v-22h-23v22Zm-68 0h23v-22h-23zm68 46v22h23v-22zm-273-46v-22h-23v22zm569-22h-23v22h23Zm91 0h-23v22h23Zm91-277v-22h-23v22zm-683 41v22h23v-22zm-68 22v-22h-23v22ZM91 612h23v22H91zm455-384h23v22h-23ZM387 411h-23v22h23Zm23 22h-23v22h23zm68 0v22h23v-22zm114 22h22v23h-22zm387 0h22v23h-22ZM410 569h-23v22h23zm68 43v22h23v-22zm455 321h23v-22h-23Zm46 0h22v23h-22ZM137 478h21.9l.1 10.3v11.4c0 1-2.9 1.3-11 1.3h-11zm842-351.2v-11.5c0-1 2.9-1.3 11-1.3h11v23h-21.9ZM751 79.6c0-6.2.3-10.7.9-11.6H773v23h-22ZM50.3 45.3l-4.3-.4V23h21.9l.3 10.5c.2 5.8.1 11 0 11.5-.4 1-9 1-18 .3M1024 524v22h-11a37 37 0 0 1-11.5-1c-.7-1.1-.5-17.8.2-19.8.4-.8 3.6-1.2 11.4-1.2zm-409.4 64.8c-.8-3-.8-11.3 0-16l.7-3.8H637v22h-10.9c-10.4 0-10.9 0-11.5-2.2M1024 433v22h-11c-6 0-11-.1-11-.2a128 128 0 0 1-.6-19.3c.6-2.5.7-2.5 11.6-2.5zM616 45.2c-.6-.2-1-4.9-1-11.3V23h22v21.8l-4.8.7c-4.5.6-14 .4-16.2-.3m305.8 23 8.6-.2h2.6v22h-22.8l.3-21.5ZM1024 569v22h-21.8l-.6-2.6c-.4-1.4-.4-6.4 0-11l.7-8.4zm0-432v21.9l-10.6.3c-8.7.2-10.7 0-11.3-1.2-.4-.8-.7-2-.5-2.7l.3-9.8.1-8.5Zm0-114v22h-21.9l-.3-11-.3-11ZM683 228h21.9l.3 10.6c.2 5.8.1 10.8-.1 11s-5.3.4-11.3.4H683Zm114 227h21.9l.2-10.6c.1-8.2-.2-10.8-1.2-11.3-.8-.3-5.8-.5-11.2-.3l-9.7.3zM956 68.4c.1-.2 4.6-.4 10.1-.4H978v22h-21.9l-.3-10.6c-.2-5.8-.1-10.8.1-11M300.8 869c2.6-.2 7.7-.2 11.4-.1l6.8.1v21h-23v-20.8ZM137 228h22v22h-22zm751 205v22h22v-22ZM1001 0v22h-22V0zm23 911v22h-22v-22zM68 591H46v-22h22zm137-477h22v22h-22Zm774 561h22v22h-22ZM228 44.8V23h22v22h-19.3q-2 0-2.7-.2M877.3 159h-6l-6.3-.3v-21.5l2.3-.3H887v21.8l-5.2.2zM296 804v-21h-23v21zm45 22h23v21h-23zm-68 0v21h23v-21Zm114-22v-21h-23v21zm23 0h23v-21h-23zm136 22v21h23v-21Zm182-22v-21h23v21Zm23 22v21h-23v-21zm91-86v21h-23v-21zm0 43v-21h23v21zm0 0v21h-23v-21Zm91-474v21h23v-21zm23 474h-23v21h23zm-751-86v21h23v-21zm-91-22h23v-21h-23Zm-23-63H68v-21h23zm296-201h23v-21h-23zm91 0h23v-21h-23Zm0 458h23v21h-23Zm24.8-824H501V23h2.6l19.4.5V45h-6l-5.3.1h-7ZM455 455l.2 8.3.2 10.4c0 2.3.3 2.3 11.6 2.3h11.5l-.6-21zm91 392h-22v21.5l11 .3 11 .2zM910 46v11q0 4-.2 6.8-.1 2-1 2.8c-1.4 1.4-4.2 1.4-10.1 1.4H888V46Zm114 566v20.7l-5.2.6c-3 .4-7.9.7-11 .7h-5.8v-22zm0 85v21h-10.8c-6 0-11.2-.3-11.5-.7-.9-.8-1-16.6 0-18.7.4-1.3 2.4-1.6 11.4-1.6zM0 411v-21h23l-.5 20.5zm69 476.2-.6-10.6-.7-7.6H91v21H69ZM1024 654v21h-11c-6 0-11.1-.4-11.4-.8s-.3-4.4-.1-8.8l.5-9.7c0-1.5 1.2-1.7 11-1.7zm0-264v21h-22l-.1-2.5-.2-5 .2-8 .1-5.5zm0 479v21h-10.9c-7.8 0-11-.3-11.3-1.2-.2-.7-.2-5.5 0-10.5l.3-9.3zm-591-43h22v21h-22zM68 804H46v-21h22zm-22-86v-21h22v21zm933-127h22v21h-22Zm-68 278h22v21h-22ZM273 46.3V67h-22V46h20.4ZM592 370h-23v20h23ZM46 675v-21h9.4c5.2 0 10.2.3 11 .6 1.3.5 1.6 2.4 1.6 10.5v9.9zm45-41v20H68v-8.4c0-4.6.3-9.1.6-10 .5-1.3 2.5-1.6 11.5-1.6zm535.4-263.7c-6.7-.2-9.8-.2-11.2-1.8-1.3-1.4-1-4.2-.6-9.7v-1l.7-7.8h21.6l.3 10.5.3 10.3c0-.1-5-.4-11.1-.5M709 654.6l-3.5-1.1.3-9.7.3-9.8H728v20h-7c-4 0-7 .4-7 1q0 .6-.2.7-2.2-.2-4.8-1m315-304.8V370h-11c-8.4 0-11.2-.3-11.6-1.4a55 55 0 0 1-.2-9.7l.3-8.4zm-113.3 19.3a73 73 0 0 1 0-10l.5-9.2H933v20h-11a47 47 0 0 1-11.3-.8M979 330h22v20h-22Zm0 304h22v20h-22Zm0 257h22v20h-22ZM387.2 641.5v-.1l-.4-7.4h23.5v.3h-.3v2.8l-.3 3.6-.7 10.1v3.4l-9-.3-7.6-.3-.4-.2q-.6-.2-.3.1h-.2l-.4-.3-5-4.5.6.3c.5 0 .7-3.4.5-7.5M777 528.9V524h18.7l.6 3.1c.3 1.7.6 6.7.6 11v7.7l-19.5.7-.3-11.2Zm0 83.1h20v-21h-20zM137 291v18h-23v-18Zm796-18v18h23v-18zm-592 18h23v-18h-23zm-22 0v18h-23v-18Zm-296 0h23v-18H23zm408.2 363.5q1 0 1.2.3l.1 1v2.8l-.2 6.8-.6 9.8-5-.5h-2.4c-1.2-.6-2.3-.7-2.3-.3-2.7-1.8-7.3-4.6-10.5-6.4l-.2-.1q.3 0 0-.3h.4q.5-.5-.5-.6-1.2 0-1.2-6.5V654h2.6l8.6.2ZM546 675v15.8l1.8-.4c-7.7 2-14.9 3.3-22.5 4v-.3c-1.9-1.1-2.7-7-1.9-13.6l.7-5.5zm478-402v18h-22v-18zM777.3 674.4a82 82 0 0 1 0-10.5l.2-9.4 7.5-.2h1.8c5-.2 7.5-.3 8.7.9 1 1.1 1 3.4.8 7.9l-.1 1.6c-.2 5.4-.5 9.9-.6 10l-9 .4q-8.7.4-9.3-.7M737 591h-9l.2-5.2.7-14 .1-2.8h16.8l.4 10.3c.3 5.6.3 10.5 0 11s-4.3.7-9.3.7M551.7 432.4a50 50 0 0 1-.7-11V411h18l-.2 10.8-.3 10.7-8 .3c-4.5.2-8.4 0-8.8-.4M635.3 761l-20.8-.5V751l.2-1.7A97 97 0 0 0 635 739l.3-.2q-.5.4-.3.6.1.3.8.4c.8.3 1.2 3.4 1.2 10.7v10.3Zm45-56.8c3.5-3.6 5.9-6.4 5.4-6.8a294 294 0 0 0-24-5.1c-1.4-.4-1.7-1.6-1.7-7.9 0-5.4.4-7.4 1.3-7.4 1.7 0 12 1.8 17.7 3l4.5 1-.5 7.6c-.4 6.5-.3 7.5 1.3 8q1.6.6 1.7 1.3c0 .5-2.4 3.1-5.8 6.3M610 330.5l.9-.3q1.2-.1 1.8.2c1.3.9 1.3 3.7 1.3 9.2V350h-21.8l-.3-5.2-.3-5.3 9.2-4.7 3.3-1.7c2.6-1.3 5-2.3 5.9-2.6m176.8-39.7-9.8.3V273h19l.2 4 .2 8.8.1 4.7ZM681.5 649.2q-.5.4-1.1.4l-8.1-1.2-7-1.5-5.3-1.2V634h23l-.2 7.7c-.2 4.5-.2 6.7-1.3 7.5M505.6 524H520v22.2l-7.5-.4c-4.7-.2-6.8 0-7.4.6.3-3 .5-11.9.5-22.4m-150.2 88c.2 0-1.8-3.7-4.5-8.3s-4.9-8.8-4.9-9.5-.3-1.2-.8-1.2l-.4-.5q.1.1.2-.3c0-.9 2.6-1.2 9.5-1.2h9.5v21Zm-99.1-31.2-1.4-5.4 3.8 13.6c2 6.3 4.1 13.4 4.7 15.7s1.4 4.3 1.8 4.3q.7.1.8 1.3-.1-1.2-1-1.3c-.9-.1-.9.6-.8 1.2q.5 1.4-6.4 1.6l-6.6.3-.4-7.3c-.2-4 0-9 .2-10.8.5-3.3.7-3.5 4.3-3.4 3 0 3.6-.3 3.3-1.5zm131.2 164.7q.3 0 .5.3c4.3 2.4 16.6 7.7 25.3 11l-3.9-1.3.4 2.7.4 2.8h-23.4l.4-7.8ZM523 337.6v-7.3l3.3-.3 8.2-.2c6.3-.2 11.4 0 11.3.4l-1.8 1.3c-2.4 1.8-5.8 4-9 6.2l-1.5 1c-5 3.3-9.1 5.8-10 6.2a39 39 0 0 1-.5-7.3m78-46.4c17.5-.5 18.4 1.4 3.4 8.4-4.3 2-7.8 3.3-8.2 3.3l-2.5-.6c-1.3-.3-1.7-1.5-1.7-5.2 0-4.8 0-4.8 3.8-5.5l3.6-.3Zm35.8 27 .5-.2c.1.2 0 2.8-.1 6l-.4 6H627c-5.7 0-10.2-.4-10.5-1s2-2 5.8-4l2.3-1.1 4.9-2.3zM569 299.8v9.1l7.3.3 7.2.3-6.2 3.3a41 41 0 0 1-7.3 3.2c-.5 0-1-1.6-1-3.5V309h-6.4c-4 0-6.6-.4-6.8-1.1q-.3-.6-4 1.4l9.7-5.3c3.7-1.9 7-3.7 7.5-4.2m177.2 357.8c.2 1.8.2 3.4 0 3.7h-.8a68 68 0 0 1-9.4-1.4c-6.2-1.2-8-2-7.7-3.2.3-2 2.8-2.6 10.3-2.6l7.2-.1ZM728.5 290q-.2-.5 1.2-1.2a51 51 0 0 1 14.8-2.8c2.2.1 2.5.6 2.5 2.5 0 2.4 0 2.5-9 2.5-4.9 0-9.1-.4-9.5-1M338.3 711.8a292 292 0 0 0 41.5 29.4c-3.7-2.1-6.6-3.3-6.5-2.7q0 1-4.3 1.1h-4.5v-3.8c-.1-3.6-.6-4.2-9-10.4q-9.1-6.7-17.2-13.6M751 252.3c0-1.2 5.7-2.3 11-2.3 3.8 0 3 1-.7 1.8l-3.7.6-.9.1c-3.5.5-5.7.4-5.7-.2M497.1 547.6c-8.7.3-25.8.5-56.4.6H364l53.7-.1c35 0 65.6-.3 79.4-.5M637.5 674q-.4-.8 1.7-.8 1.3 0 3.9.5l3.9.7q1 .4-3.7.5c-2.9 0-5.5-.4-5.8-.9m-41.7-399.1h.2c.8 0 3.7 1.4 6.4 3l3.8 2.2-3.8-2.1a65 65 0 0 0-6.6-3.1m-1 482.4q7.6-2.8 15.2-6l-2.5 1.1c-2.2 1-7 2.9-12.6 5M335.2 568.1l1.9 5.4-1.1-3.1zm-3-13.6v.2q-.3 1.5.7 5.5zm69.5 107.2 2.6 2q.3 0 .5.3l-5.5-4zm83.2 111 7.7.7h-.2zm167.3-46.1c5.6-4 11.5-8.3 14.7-10.8l.6-.5-1.1 1zm-45-445.8-12.7 6.2Zm-178 397.3-.7-.1h-.2l.1-.2h.2ZM331 551.6l-.1-1v-.2zM615 205l-.2 11.2zM358.6 617.2l-.8-1.2Zm-21.3-165.8-1.1 3.4z"/><path fill="#f86d05" d="M496.5 774c-3.3-.5-10.7-1.1-16.5-1.5-11.8-.7-22.5-2.2-24.9-3.4-.9-.5-8.1-2.3-16.1-4.2-8-1.8-14.7-3.6-15-4s-2.3-1.2-4.5-1.9a273 273 0 0 1-31.5-13.2 299 299 0 0 1-66.5-49.5 336 336 0 0 1-42.4-57.5c-1.8-3.2-3.7-6-4.2-6.3q-.8-.8-.9-2.5c0-1-1.8-5.6-4-10.1s-4-8.9-4-9.6q0-1.2-.8-1.3c-.4 0-1.2-2-1.8-4.2l-4.7-15.8a259 259 0 0 1-4.1-136.9c4-16 9.5-34 12.6-41a298 298 0 0 1 50.6-78.5c3-4.6 40.7-36 47.6-39.7l3.5-1.8 12.3-6.7a268 268 0 0 1 55.3-22c1.1 0 5.6-1 10-1.9 37.6-8 79.6-6.8 116.5 3a248 248 0 0 1 39.4 14.5l5 2.8-19 9.1a303 303 0 0 0-26.9 14.1 402 402 0 0 0-38.9 23.2l-11.8 8-11.4-.8c-8-.5-11.4-.3-11.4.4q-.2 1-6.7 1a121 121 0 0 0-34.8 7.1c-2.7.7-7.4 2.3-10.4 3.7s-5.7 2.4-6.1 2.4-4.3 2-8.6 4.5a50 50 0 0 1-9.2 4.5c-1.7 0-15 9.2-18 12.4-1.4 1.5-3 2.6-3.6 2.6a160 160 0 0 0-21.3 21.1c.1.4-1.8 3-4.2 5.8-5 5.8-9.5 12.1-8.6 12.1.3 0-.7 2-2.3 4.3a169 169 0 0 0-14.9 29c-5.1 14.8-6.4 19.3-6 21.5.2 1.2 0 2.2-.4 2.2s-.9 1.6-.9 3.5v3.5h85.7c74 0 86 .2 86.9 1.4 1 1.5 1.4 68.9.3 70-.3.3-39.5.6-87.2.7H331v2.5c0 1.3.4 2.4 1 2.4s.7.7.4 1.5a40 40 0 0 0 3.6 16c6 16.5 8.6 22.5 9.2 22.5q.8.1.8 1.3c0 1.2 2.2 5 5 9.5s4.6 8.2 4.4 8.2a60 60 0 0 0 8.4 12 160 160 0 0 0 27.3 29.1 104 104 0 0 0 20.4 15c3.3 1.7 8.2 4.7 10.9 6.6 2.6 1.8 5.5 3.3 6.3 3.3s3.1.9 5.3 2a200 200 0 0 0 29.5 10.4c14.4 3.4 27.4 4.8 43 4.8 25.5 0 41.3-3.3 70.8-14.8 4.6-1.8 5.1-1.8 17 0 6.7 1 19.9 3.2 29.2 5.1 9.4 2 21 4.1 26 5 23 3.8 35.6 6.2 36.2 6.9 1 1-9.7 11.5-18.7 18.6a436 436 0 0 1-19.5 14.1c-6.6 4.5-12.2 8.5-12.5 8.8-2.2 3-32 16-50.5 22l-15 5.1c-8.6 3.3-32.1 6.9-46.2 7-3.5 0-6.3.4-6.3 1 0 1.1-11.5 1.1-20.5 0"/></svg>